<svg xmlns="http://www.w3.org/2000/svg" xmlns:xlink="http://www.w3.org/1999/xlink" xmlns:s="https://github.com/nturley/netlistsvg" width="897" height="732.5"><style>svg {
  stroke:#000;
  fill:none;
}
text {
  fill:#000;
  stroke:none;
  font-size:10px;
  font-weight: bold;
  font-family: "Courier New", monospace;
}
line {
    stroke-linecap: round;
}
.nodelabel {
  text-anchor: middle;
}
.inputPortLabel {
  text-anchor: end;
}
.splitjoinBody {
  fill:#000;
}</style><g s:type="generic" transform="translate(831,637.5)" s:width="30" s:height="40" id="cell_comp20"><text x="15" y="-4" class="nodelabel cell_comp20" s:attribute="ref">comp2</text><rect width="30" height="20" s:generic="body" class="cell_comp20"/><g transform="translate(0,10)" s:x="0" s:y="10" s:pid="in0" id="port_comp20~T"><text x="-3" y="-4" class="inputPortLabel cell_comp20">T</text></g><g transform="translate(30,10)" s:x="30" s:y="10" s:pid="out0" id="port_comp20~c2"><text x="5" y="-4" style="fill:#000; stroke:none" class="cell_comp20">c2</text></g></g><g s:type="generic" transform="translate(837,32)" s:width="30" s:height="40" id="cell_cont0"><text x="15" y="-4" class="nodelabel cell_cont0" s:attribute="ref">cont</text><rect width="30" height="60" s:generic="body" class="cell_cont0"/><g transform="translate(0,10)" s:x="0" s:y="10" s:pid="in0" id="port_cont0~clk"><text x="-3" y="-4" class="inputPortLabel cell_cont0">clk</text></g><g transform="translate(0,30)" s:x="0" s:y="10" s:pid="in0" id="port_cont0~rs"><text x="-3" y="-4" class="inputPortLabel cell_cont0">rs</text></g><g transform="translate(0,50)" s:x="0" s:y="10" s:pid="in0" id="port_cont0~sh"><text x="-3" y="-4" class="inputPortLabel cell_cont0">sh</text></g><g transform="translate(30,10)" s:x="30" s:y="10" s:pid="out0" id="port_cont0~j"><text x="5" y="-4" style="fill:#000; stroke:none" class="cell_cont0">j</text></g></g><g s:type="generic" transform="translate(152,342)" s:width="30" s:height="40" id="cell_control_SQRT0"><text x="15" y="-4" class="nodelabel cell_control_SQRT0" s:attribute="ref">control_SQRT</text><rect width="30" height="120" s:generic="body" class="cell_control_SQRT0"/><g transform="translate(0,10)" s:x="0" s:y="10" s:pid="in0" id="port_control_SQRT0~S"><text x="-3" y="-4" class="inputPortLabel cell_control_SQRT0">S</text></g><g transform="translate(0,30)" s:x="0" s:y="10" s:pid="in0" id="port_control_SQRT0~clk"><text x="-3" y="-4" class="inputPortLabel cell_control_SQRT0">clk</text></g><g transform="translate(0,50)" s:x="0" s:y="10" s:pid="in0" id="port_control_SQRT0~init"><text x="-3" y="-4" class="inputPortLabel cell_control_SQRT0">init</text></g><g transform="translate(0,70)" s:x="0" s:y="10" s:pid="in0" id="port_control_SQRT0~j"><text x="-3" y="-4" class="inputPortLabel cell_control_SQRT0">j</text></g><g transform="translate(0,90)" s:x="0" s:y="10" s:pid="in0" id="port_control_SQRT0~rst"><text x="-3" y="-4" class="inputPortLabel cell_control_SQRT0">rst</text></g><g transform="translate(30,10)" s:x="30" s:y="10" s:pid="out0" id="port_control_SQRT0~cct"><text x="5" y="-4" style="fill:#000; stroke:none" class="cell_control_SQRT0">cct</text></g><g transform="translate(30,30)" s:x="30" s:y="10" s:pid="out0" id="port_control_SQRT0~dc"><text x="5" y="-4" style="fill:#000; stroke:none" class="cell_control_SQRT0">dc</text></g><g transform="translate(30,50)" s:x="30" s:y="10" s:pid="out0" id="port_control_SQRT0~done"><text x="5" y="-4" style="fill:#000; stroke:none" class="cell_control_SQRT0">done</text></g><g transform="translate(30,70)" s:x="30" s:y="10" s:pid="out0" id="port_control_SQRT0~rs"><text x="5" y="-4" style="fill:#000; stroke:none" class="cell_control_SQRT0">rs</text></g><g transform="translate(30,90)" s:x="30" s:y="10" s:pid="out0" id="port_control_SQRT0~s"><text x="5" y="-4" style="fill:#000; stroke:none" class="cell_control_SQRT0">s</text></g><g transform="translate(30,110)" s:x="30" s:y="10" s:pid="out0" id="port_control_SQRT0~sh"><text x="5" y="-4" style="fill:#000; stroke:none" class="cell_control_SQRT0">sh</text></g></g><g s:type="generic" transform="translate(329,266.5)" s:width="30" s:height="40" id="cell_dec0"><text x="15" y="-4" class="nodelabel cell_dec0" s:attribute="ref">dec</text><rect width="30" height="100" s:generic="body" class="cell_dec0"/><g transform="translate(0,10)" s:x="0" s:y="10" s:pid="in0" id="port_dec0~R"><text x="-3" y="-4" class="inputPortLabel cell_dec0">R</text></g><g transform="translate(0,30)" s:x="0" s:y="10" s:pid="in0" id="port_dec0~c2"><text x="-3" y="-4" class="inputPortLabel cell_dec0">c2</text></g><g transform="translate(0,50)" s:x="0" s:y="10" s:pid="in0" id="port_dec0~clk"><text x="-3" y="-4" class="inputPortLabel cell_dec0">clk</text></g><g transform="translate(0,70)" s:x="0" s:y="10" s:pid="in0" id="port_dec0~dc"><text x="-3" y="-4" class="inputPortLabel cell_dec0">dc</text></g><g transform="translate(0,90)" s:x="0" s:y="10" s:pid="in0" id="port_dec0~rs"><text x="-3" y="-4" class="inputPortLabel cell_dec0">rs</text></g><g transform="translate(30,10)" s:x="30" s:y="10" s:pid="out0" id="port_dec0~S"><text x="5" y="-4" style="fill:#000; stroke:none" class="cell_dec0">S</text></g></g><g s:type="generic" transform="translate(421,183)" s:width="30" s:height="40" id="cell_lsr0"><text x="15" y="-4" class="nodelabel cell_lsr0" s:attribute="ref">lsr</text><rect width="30" height="80" s:generic="body" class="cell_lsr0"/><g transform="translate(0,10)" s:x="0" s:y="10" s:pid="in0" id="port_lsr0~clk"><text x="-3" y="-4" class="inputPortLabel cell_lsr0">clk</text></g><g transform="translate(0,30)" s:x="0" s:y="10" s:pid="in0" id="port_lsr0~i"><text x="-3" y="-4" class="inputPortLabel cell_lsr0">i</text></g><g transform="translate(0,50)" s:x="0" s:y="10" s:pid="in0" id="port_lsr0~rs"><text x="-3" y="-4" class="inputPortLabel cell_lsr0">rs</text></g><g transform="translate(0,70)" s:x="0" s:y="10" s:pid="in0" id="port_lsr0~sh"><text x="-3" y="-4" class="inputPortLabel cell_lsr0">sh</text></g><g transform="translate(30,10)" s:x="30" s:y="10" s:pid="out0" id="port_lsr0~o"><text x="5" y="-4" style="fill:#000; stroke:none" class="cell_lsr0">o</text></g></g><g s:type="generic" transform="translate(560,489.5)" s:width="30" s:height="40" id="cell_qcct0"><text x="15" y="-4" class="nodelabel cell_qcct0" s:attribute="ref">qcct</text><rect width="30" height="80" s:generic="body" class="cell_qcct0"/><g transform="translate(0,10)" s:x="0" s:y="10" s:pid="in0" id="port_qcct0~S"><text x="-3" y="-4" class="inputPortLabel cell_qcct0">S</text></g><g transform="translate(0,30)" s:x="0" s:y="10" s:pid="in0" id="port_qcct0~clk"><text x="-3" y="-4" class="inputPortLabel cell_qcct0">clk</text></g><g transform="translate(0,50)" s:x="0" s:y="10" s:pid="in0" id="port_qcct0~rs"><text x="-3" y="-4" class="inputPortLabel cell_qcct0">rs</text></g><g transform="translate(0,70)" s:x="0" s:y="10" s:pid="in0" id="port_qcct0~sh"><text x="-3" y="-4" class="inputPortLabel cell_qcct0">sh</text></g><g transform="translate(30,10)" s:x="30" s:y="10" s:pid="out0" id="port_qcct0~Q"><text x="5" y="-4" style="fill:#000; stroke:none" class="cell_qcct0">Q</text></g></g><g s:type="generic" transform="translate(706,139.5)" s:width="30" s:height="40" id="cell_rcct0"><text x="15" y="-4" class="nodelabel cell_rcct0" s:attribute="ref">rcct</text><rect width="30" height="120" s:generic="body" class="cell_rcct0"/><g transform="translate(0,10)" s:x="0" s:y="10" s:pid="in0" id="port_rcct0~A"><text x="-3" y="-4" class="inputPortLabel cell_rcct0">A</text></g><g transform="translate(0,30)" s:x="0" s:y="10" s:pid="in0" id="port_rcct0~S"><text x="-3" y="-4" class="inputPortLabel cell_rcct0">S</text></g><g transform="translate(0,50)" s:x="0" s:y="10" s:pid="in0" id="port_rcct0~cct"><text x="-3" y="-4" class="inputPortLabel cell_rcct0">cct</text></g><g transform="translate(0,70)" s:x="0" s:y="10" s:pid="in0" id="port_rcct0~clk"><text x="-3" y="-4" class="inputPortLabel cell_rcct0">clk</text></g><g transform="translate(0,90)" s:x="0" s:y="10" s:pid="in0" id="port_rcct0~rs"><text x="-3" y="-4" class="inputPortLabel cell_rcct0">rs</text></g><g transform="translate(0,110)" s:x="0" s:y="10" s:pid="in0" id="port_rcct0~s"><text x="-3" y="-4" class="inputPortLabel cell_rcct0">s</text></g><g transform="translate(30,10)" s:x="30" s:y="10" s:pid="out0" id="port_rcct0~R"><text x="5" y="-4" style="fill:#000; stroke:none" class="cell_rcct0">R</text></g></g><g s:type="generic" transform="translate(706,637.5)" s:width="30" s:height="40" id="cell_tcct0"><text x="15" y="-4" class="nodelabel cell_tcct0" s:attribute="ref">tcct</text><rect width="30" height="80" s:generic="body" class="cell_tcct0"/><g transform="translate(0,10)" s:x="0" s:y="10" s:pid="in0" id="port_tcct0~Q"><text x="-3" y="-4" class="inputPortLabel cell_tcct0">Q</text></g><g transform="translate(0,30)" s:x="0" s:y="10" s:pid="in0" id="port_tcct0~cct"><text x="-3" y="-4" class="inputPortLabel cell_tcct0">cct</text></g><g transform="translate(0,50)" s:x="0" s:y="10" s:pid="in0" id="port_tcct0~clk"><text x="-3" y="-4" class="inputPortLabel cell_tcct0">clk</text></g><g transform="translate(0,70)" s:x="0" s:y="10" s:pid="in0" id="port_tcct0~rs"><text x="-3" y="-4" class="inputPortLabel cell_tcct0">rs</text></g><g transform="translate(30,10)" s:x="30" s:y="10" s:pid="out0" id="port_tcct0~T"><text x="5" y="-4" style="fill:#000; stroke:none" class="cell_tcct0">T</text></g></g><g s:type="inputExt" transform="translate(62,307)" s:width="30" s:height="20" id="cell_clk"><text x="15" y="-4" class="nodelabel cell_clk" s:attribute="ref">clk</text><s:alias val="$_inputExt_"/><path d="M0,0 L0,20 L15,20 L30,10 L15,0 Z" class="cell_clk"/><g s:x="30" s:y="10" s:pid="Y"/></g><g s:type="inputExt" transform="translate(62,382.5)" s:width="30" s:height="20" id="cell_init"><text x="15" y="-4" class="nodelabel cell_init" s:attribute="ref">init</text><s:alias val="$_inputExt_"/><path d="M0,0 L0,20 L15,20 L30,10 L15,0 Z" class="cell_init"/><g s:x="30" s:y="10" s:pid="Y"/></g><g s:type="inputExt" transform="translate(62,447.5)" s:width="30" s:height="20" id="cell_rst"><text x="15" y="-4" class="nodelabel cell_rst" s:attribute="ref">rst</text><s:alias val="$_inputExt_"/><path d="M0,0 L0,20 L15,20 L30,10 L15,0 Z" class="cell_rst"/><g s:x="30" s:y="10" s:pid="Y"/></g><g s:type="inputExt" transform="translate(152,203.5)" s:width="30" s:height="20" id="cell_A"><text x="15" y="-4" class="nodelabel cell_A" s:attribute="ref">A</text><s:alias val="$_inputExt_"/><path d="M0,0 L0,20 L15,20 L30,10 L15,0 Z" class="cell_A"/><g s:x="30" s:y="10" s:pid="Y"/></g><g s:type="inputExt" transform="translate(12,22)" s:width="30" s:height="20" id="cell_h"><text x="15" y="-4" class="nodelabel cell_h" s:attribute="ref">h</text><s:alias val="$_inputExt_"/><path d="M0,0 L0,20 L15,20 L30,10 L15,0 Z" class="cell_h"/><g s:x="30" s:y="10" s:pid="Y"/></g><g s:type="outputExt" transform="translate(837,490)" s:width="30" s:height="20" id="cell_Q"><text x="15" y="-4" class="nodelabel cell_Q" s:attribute="ref">Q</text><s:alias val="$_outputExt_"/><path d="M30,0 L30,20 L15,20 L0,10 L15,0 Z" class="cell_Q"/><g s:x="0" s:y="10" s:pid="A"/></g><g s:type="outputExt" transform="translate(837,140)" s:width="30" s:height="20" id="cell_R"><text x="15" y="-4" class="nodelabel cell_R" s:attribute="ref">R</text><s:alias val="$_outputExt_"/><path d="M30,0 L30,20 L15,20 L0,10 L15,0 Z" class="cell_R"/><g s:x="0" s:y="10" s:pid="A"/></g><g s:type="outputExt" transform="translate(837,572.5)" s:width="30" s:height="20" id="cell_done"><text x="15" y="-4" class="nodelabel cell_done" s:attribute="ref">done</text><s:alias val="$_outputExt_"/><path d="M30,0 L30,20 L15,20 L0,10 L15,0 Z" class="cell_done"/><g s:x="0" s:y="10" s:pid="A"/></g><g s:type="split" transform="translate(494,259)" s:width="5" s:height="40" id="cell_$split$,56,57,58,59,60,61,62,63,"><rect width="5" height="20" class="splitjoinBody" s:generic="body"/><s:alias val="$_split_"/><g s:x="0" s:y="20" s:pid="in"/><g transform="translate(4,10)" s:x="4" s:y="10" s:pid="out0"><text x="5" y="-4">7</text></g></g><g s:type="split" transform="translate(574,139.5)" s:width="5" s:height="40" id="cell_$split$,64,65,66,67,68,69,70,71,"><rect width="5" height="20" class="splitjoinBody" s:generic="body"/><s:alias val="$_split_"/><g s:x="0" s:y="20" s:pid="in"/><g transform="translate(4,10)" s:x="4" s:y="10" s:pid="out0"><text x="5" y="-4">6:7</text></g></g><line x1="737" x2="831" y1="648" y2="648" class="net_34,35,36,37,38,39,40,41 width_8" style="stroke-width: 2"/><line x1="92" x2="112" y1="317" y2="317" class="net_2 width_1" style="stroke-width: 1"/><line x1="112" x2="112" y1="317" y2="42.5" class="net_2 width_1" style="stroke-width: 1"/><circle cx="112" cy="317" r="2" style="fill:#000" class="net_2 width_1"/><line x1="112" x2="837" y1="42.5" y2="42.5" class="net_2 width_1" style="stroke-width: 1"/><line x1="92" x2="112" y1="317" y2="317" class="net_2 width_1" style="stroke-width: 1"/><line x1="112" x2="112" y1="317" y2="372.5" class="net_2 width_1" style="stroke-width: 1"/><circle cx="112" cy="372.5" r="2" style="fill:#000" class="net_2 width_1"/><line x1="112" x2="152" y1="372.5" y2="372.5" class="net_2 width_1" style="stroke-width: 1"/><line x1="92" x2="329" y1="317" y2="317" class="net_2 width_1" style="stroke-width: 1"/><line x1="92" x2="112" y1="317" y2="317" class="net_2 width_1" style="stroke-width: 1"/><line x1="112" x2="112" y1="317" y2="42.5" class="net_2 width_1" style="stroke-width: 1"/><line x1="112" x2="300" y1="42.5" y2="42.5" class="net_2 width_1" style="stroke-width: 1"/><line x1="300" x2="300" y1="42.5" y2="193.5" class="net_2 width_1" style="stroke-width: 1"/><circle cx="300" cy="42.5" r="2" style="fill:#000" class="net_2 width_1"/><line x1="300" x2="421" y1="193.5" y2="193.5" class="net_2 width_1" style="stroke-width: 1"/><line x1="92" x2="112" y1="317" y2="317" class="net_2 width_1" style="stroke-width: 1"/><line x1="112" x2="112" y1="317" y2="520" class="net_2 width_1" style="stroke-width: 1"/><line x1="112" x2="560" y1="520" y2="520" class="net_2 width_1" style="stroke-width: 1"/><line x1="92" x2="300" y1="317" y2="317" class="net_2 width_1" style="stroke-width: 1"/><line x1="300" x2="300" y1="317" y2="401.5" class="net_2 width_1" style="stroke-width: 1"/><line x1="300" x2="657" y1="401.5" y2="401.5" class="net_2 width_1" style="stroke-width: 1"/><line x1="657" x2="657" y1="401.5" y2="210" class="net_2 width_1" style="stroke-width: 1"/><circle cx="300" cy="317" r="2" style="fill:#000" class="net_2 width_1"/><line x1="657" x2="706" y1="210" y2="210" class="net_2 width_1" style="stroke-width: 1"/><line x1="92" x2="112" y1="317" y2="317" class="net_2 width_1" style="stroke-width: 1"/><line x1="112" x2="112" y1="317" y2="520" class="net_2 width_1" style="stroke-width: 1"/><line x1="112" x2="240" y1="520" y2="520" class="net_2 width_1" style="stroke-width: 1"/><line x1="240" x2="240" y1="520" y2="688" class="net_2 width_1" style="stroke-width: 1"/><circle cx="240" cy="520" r="2" style="fill:#000" class="net_2 width_1"/><line x1="240" x2="706" y1="688" y2="688" class="net_2 width_1" style="stroke-width: 1"/><line x1="183" x2="280" y1="412.5" y2="412.5" class="net_51 width_1" style="stroke-width: 1"/><line x1="280" x2="280" y1="412.5" y2="62.5" class="net_51 width_1" style="stroke-width: 1"/><circle cx="280" cy="412.5" r="2" style="fill:#000" class="net_51 width_1"/><line x1="280" x2="837" y1="62.5" y2="62.5" class="net_51 width_1" style="stroke-width: 1"/><line x1="183" x2="280" y1="412.5" y2="412.5" class="net_51 width_1" style="stroke-width: 1"/><line x1="280" x2="280" y1="412.5" y2="357" class="net_51 width_1" style="stroke-width: 1"/><circle cx="280" cy="357" r="2" style="fill:#000" class="net_51 width_1"/><line x1="280" x2="329" y1="357" y2="357" class="net_51 width_1" style="stroke-width: 1"/><line x1="183" x2="280" y1="412.5" y2="412.5" class="net_51 width_1" style="stroke-width: 1"/><line x1="280" x2="280" y1="412.5" y2="233.5" class="net_51 width_1" style="stroke-width: 1"/><circle cx="280" cy="233.5" r="2" style="fill:#000" class="net_51 width_1"/><line x1="280" x2="421" y1="233.5" y2="233.5" class="net_51 width_1" style="stroke-width: 1"/><line x1="183" x2="280" y1="412.5" y2="412.5" class="net_51 width_1" style="stroke-width: 1"/><line x1="280" x2="280" y1="412.5" y2="540" class="net_51 width_1" style="stroke-width: 1"/><circle cx="280" cy="540" r="2" style="fill:#000" class="net_51 width_1"/><line x1="280" x2="560" y1="540" y2="540" class="net_51 width_1" style="stroke-width: 1"/><line x1="183" x2="667" y1="412.5" y2="412.5" class="net_51 width_1" style="stroke-width: 1"/><line x1="667" x2="667" y1="412.5" y2="230" class="net_51 width_1" style="stroke-width: 1"/><line x1="667" x2="706" y1="230" y2="230" class="net_51 width_1" style="stroke-width: 1"/><line x1="183" x2="280" y1="412.5" y2="412.5" class="net_51 width_1" style="stroke-width: 1"/><line x1="280" x2="280" y1="412.5" y2="708" class="net_51 width_1" style="stroke-width: 1"/><line x1="280" x2="706" y1="708" y2="708" class="net_51 width_1" style="stroke-width: 1"/><line x1="183" x2="270" y1="452.5" y2="452.5" class="net_52 width_1" style="stroke-width: 1"/><line x1="270" x2="270" y1="452.5" y2="82.5" class="net_52 width_1" style="stroke-width: 1"/><circle cx="270" cy="452.5" r="2" style="fill:#000" class="net_52 width_1"/><line x1="270" x2="837" y1="82.5" y2="82.5" class="net_52 width_1" style="stroke-width: 1"/><line x1="183" x2="270" y1="452.5" y2="452.5" class="net_52 width_1" style="stroke-width: 1"/><line x1="270" x2="270" y1="452.5" y2="379.5" class="net_52 width_1" style="stroke-width: 1"/><line x1="270" x2="377" y1="379.5" y2="379.5" class="net_52 width_1" style="stroke-width: 1"/><line x1="377" x2="377" y1="379.5" y2="253.5" class="net_52 width_1" style="stroke-width: 1"/><circle cx="270" cy="379.5" r="2" style="fill:#000" class="net_52 width_1"/><line x1="377" x2="421" y1="253.5" y2="253.5" class="net_52 width_1" style="stroke-width: 1"/><line x1="183" x2="270" y1="452.5" y2="452.5" class="net_52 width_1" style="stroke-width: 1"/><line x1="270" x2="270" y1="452.5" y2="560" class="net_52 width_1" style="stroke-width: 1"/><line x1="270" x2="560" y1="560" y2="560" class="net_52 width_1" style="stroke-width: 1"/><line x1="92" x2="152" y1="392.5" y2="392.5" class="net_3 width_1" style="stroke-width: 1"/><line x1="868" x2="885" y1="42.5" y2="42.5" class="net_50 width_1" style="stroke-width: 1"/><line x1="885" x2="885" y1="42.5" y2="12" class="net_50 width_1" style="stroke-width: 1"/><line x1="885" x2="102" y1="12" y2="12" class="net_50 width_1" style="stroke-width: 1"/><line x1="102" x2="102" y1="12" y2="412.5" class="net_50 width_1" style="stroke-width: 1"/><line x1="102" x2="152" y1="412.5" y2="412.5" class="net_50 width_1" style="stroke-width: 1"/><line x1="92" x2="102" y1="457.5" y2="457.5" class="net_4 width_1" style="stroke-width: 1"/><line x1="102" x2="102" y1="457.5" y2="432.5" class="net_4 width_1" style="stroke-width: 1"/><line x1="102" x2="152" y1="432.5" y2="432.5" class="net_4 width_1" style="stroke-width: 1"/><line x1="737" x2="754" y1="150" y2="150" class="net_25,26,27,28,29,30,31,32 width_8" style="stroke-width: 2"/><line x1="754" x2="754" y1="150" y2="97.5" class="net_25,26,27,28,29,30,31,32 width_8" style="stroke-width: 2"/><line x1="754" x2="290" y1="97.5" y2="97.5" class="net_25,26,27,28,29,30,31,32 width_8" style="stroke-width: 2"/><line x1="290" x2="290" y1="97.5" y2="277" class="net_25,26,27,28,29,30,31,32 width_8" style="stroke-width: 2"/><circle cx="754" cy="150" r="3" style="fill:#000" class="net_25,26,27,28,29,30,31,32 width_8"/><line x1="290" x2="329" y1="277" y2="277" class="net_25,26,27,28,29,30,31,32 width_8" style="stroke-width: 2"/><line x1="737" x2="837" y1="150" y2="150" class="net_25,26,27,28,29,30,31,32 width_8" style="stroke-width: 2"/><line x1="862" x2="885" y1="648" y2="648" class="net_42,43,44,45,46,47,48,49 width_8" style="stroke-width: 2"/><line x1="885" x2="885" y1="648" y2="438.5" class="net_42,43,44,45,46,47,48,49 width_8" style="stroke-width: 2"/><line x1="885" x2="290" y1="438.5" y2="438.5" class="net_42,43,44,45,46,47,48,49 width_8" style="stroke-width: 2"/><line x1="290" x2="290" y1="438.5" y2="297" class="net_42,43,44,45,46,47,48,49 width_8" style="stroke-width: 2"/><line x1="290" x2="329" y1="297" y2="297" class="net_42,43,44,45,46,47,48,49 width_8" style="stroke-width: 2"/><line x1="183" x2="240" y1="372.5" y2="372.5" class="net_54 width_1" style="stroke-width: 1"/><line x1="240" x2="240" y1="372.5" y2="337" class="net_54 width_1" style="stroke-width: 1"/><line x1="240" x2="329" y1="337" y2="337" class="net_54 width_1" style="stroke-width: 1"/><line x1="182" x2="421" y1="213.5" y2="213.5" class="net_5,6,7,8,9,10,11,12 width_8" style="stroke-width: 2"/><line x1="499" x2="516" y1="269.5" y2="269.5" class="net_63 width_1" style="stroke-width: 1"/><line x1="516" x2="516" y1="269.5" y2="500" class="net_63 width_1" style="stroke-width: 1"/><line x1="516" x2="560" y1="500" y2="500" class="net_63 width_1" style="stroke-width: 1"/><line x1="579" x2="706" y1="150" y2="150" class="net_70,71 width_2" style="stroke-width: 2"/><line x1="360" x2="469" y1="277" y2="277" class="net_56,57,58,59,60,61,62,63 width_8" style="stroke-width: 2"/><line x1="469" x2="469" y1="277" y2="173.5" class="net_56,57,58,59,60,61,62,63 width_8" style="stroke-width: 2"/><line x1="469" x2="647" y1="173.5" y2="173.5" class="net_56,57,58,59,60,61,62,63 width_8" style="stroke-width: 2"/><line x1="647" x2="647" y1="173.5" y2="170" class="net_56,57,58,59,60,61,62,63 width_8" style="stroke-width: 2"/><line x1="647" x2="706" y1="170" y2="170" class="net_56,57,58,59,60,61,62,63 width_8" style="stroke-width: 2"/><line x1="360" x2="387" y1="277" y2="277" class="net_56,57,58,59,60,61,62,63 width_8" style="stroke-width: 2"/><line x1="387" x2="387" y1="277" y2="292" class="net_56,57,58,59,60,61,62,63 width_8" style="stroke-width: 2"/><line x1="387" x2="494.5" y1="292" y2="292" class="net_56,57,58,59,60,61,62,63 width_8" style="stroke-width: 2"/><circle cx="387" cy="277" r="3" style="fill:#000" class="net_56,57,58,59,60,61,62,63 width_8"/><line x1="494.5" x2="494.5" y1="292" y2="280" class="net_56,57,58,59,60,61,62,63 width_8" style="stroke-width: 2"/><line x1="183" x2="260" y1="352.5" y2="352.5" class="net_53 width_1" style="stroke-width: 1"/><line x1="260" x2="260" y1="352.5" y2="390.5" class="net_53 width_1" style="stroke-width: 1"/><line x1="260" x2="647" y1="390.5" y2="390.5" class="net_53 width_1" style="stroke-width: 1"/><line x1="647" x2="647" y1="390.5" y2="190" class="net_53 width_1" style="stroke-width: 1"/><circle cx="260" cy="390.5" r="2" style="fill:#000" class="net_53 width_1"/><line x1="647" x2="706" y1="190" y2="190" class="net_53 width_1" style="stroke-width: 1"/><line x1="183" x2="260" y1="352.5" y2="352.5" class="net_53 width_1" style="stroke-width: 1"/><line x1="260" x2="260" y1="352.5" y2="668" class="net_53 width_1" style="stroke-width: 1"/><line x1="260" x2="706" y1="668" y2="668" class="net_53 width_1" style="stroke-width: 1"/><line x1="183" x2="300" y1="432.5" y2="432.5" class="net_55 width_1" style="stroke-width: 1"/><line x1="300" x2="300" y1="432.5" y2="423.5" class="net_55 width_1" style="stroke-width: 1"/><line x1="300" x2="677" y1="423.5" y2="423.5" class="net_55 width_1" style="stroke-width: 1"/><line x1="677" x2="677" y1="423.5" y2="250" class="net_55 width_1" style="stroke-width: 1"/><line x1="677" x2="706" y1="250" y2="250" class="net_55 width_1" style="stroke-width: 1"/><line x1="591" x2="608" y1="500" y2="500" class="net_17,18,19,20,21,22,23,24 width_8" style="stroke-width: 2"/><line x1="608" x2="608" y1="500" y2="648" class="net_17,18,19,20,21,22,23,24 width_8" style="stroke-width: 2"/><circle cx="608" cy="500" r="3" style="fill:#000" class="net_17,18,19,20,21,22,23,24 width_8"/><line x1="608" x2="706" y1="648" y2="648" class="net_17,18,19,20,21,22,23,24 width_8" style="stroke-width: 2"/><line x1="591" x2="837" y1="500" y2="500" class="net_17,18,19,20,21,22,23,24 width_8" style="stroke-width: 2"/><line x1="183" x2="250" y1="392.5" y2="392.5" class="net_33 width_1" style="stroke-width: 1"/><line x1="250" x2="250" y1="392.5" y2="582.5" class="net_33 width_1" style="stroke-width: 1"/><line x1="250" x2="837" y1="582.5" y2="582.5" class="net_33 width_1" style="stroke-width: 1"/><line x1="452" x2="574.5" y1="193.5" y2="193.5" class="net_64,65,66,67,68,69,70,71 width_8" style="stroke-width: 2"/><line x1="574.5" x2="574.5" y1="193.5" y2="160.5" class="net_64,65,66,67,68,69,70,71 width_8" style="stroke-width: 2"/><rect x="780" y="643" width="16" height="9" class="net_34,35,36,37,38,39,40,41 width_8 busLabel_8" style="fill: white; stroke: none"/><text x="779" y="651" class="net_34,35,36,37,38,39,40,41 width_8 busLabel_8">/8/</text><rect x="780" y="145" width="16" height="9" class="net_25,26,27,28,29,30,31,32 width_8 busLabel_8" style="fill: white; stroke: none"/><text x="779" y="153" class="net_25,26,27,28,29,30,31,32 width_8 busLabel_8">/8/</text><rect x="780" y="145" width="16" height="9" class="net_25,26,27,28,29,30,31,32 width_8 busLabel_8" style="fill: white; stroke: none"/><text x="779" y="153" class="net_25,26,27,28,29,30,31,32 width_8 busLabel_8">/8/</text><rect x="568.5" y="433.5" width="16" height="9" class="net_42,43,44,45,46,47,48,49 width_8 busLabel_8" style="fill: white; stroke: none"/><text x="567.5" y="441.5" class="net_42,43,44,45,46,47,48,49 width_8 busLabel_8">/8/</text><rect x="337.5" y="208.5" width="16" height="9" class="net_5,6,7,8,9,10,11,12 width_8 busLabel_8" style="fill: white; stroke: none"/><text x="336.5" y="216.5" class="net_5,6,7,8,9,10,11,12 width_8 busLabel_8">/8/</text><rect x="634" y="145" width="16" height="9" class="net_70,71 width_2 busLabel_2" style="fill: white; stroke: none"/><text x="633" y="153" class="net_70,71 width_2 busLabel_2">/2/</text><rect x="429.5" y="287" width="16" height="9" class="net_56,57,58,59,60,61,62,63 width_8 busLabel_8" style="fill: white; stroke: none"/><text x="428.5" y="295" class="net_56,57,58,59,60,61,62,63 width_8 busLabel_8">/8/</text><rect x="429.5" y="287" width="16" height="9" class="net_56,57,58,59,60,61,62,63 width_8 busLabel_8" style="fill: white; stroke: none"/><text x="428.5" y="295" class="net_56,57,58,59,60,61,62,63 width_8 busLabel_8">/8/</text><rect x="714.5" y="495" width="16" height="9" class="net_17,18,19,20,21,22,23,24 width_8 busLabel_8" style="fill: white; stroke: none"/><text x="713.5" y="503" class="net_17,18,19,20,21,22,23,24 width_8 busLabel_8">/8/</text><rect x="714.5" y="495" width="16" height="9" class="net_17,18,19,20,21,22,23,24 width_8 busLabel_8" style="fill: white; stroke: none"/><text x="713.5" y="503" class="net_17,18,19,20,21,22,23,24 width_8 busLabel_8">/8/</text><rect x="499" y="188.5" width="16" height="9" class="net_64,65,66,67,68,69,70,71 width_8 busLabel_8" style="fill: white; stroke: none"/><text x="498" y="196.5" class="net_64,65,66,67,68,69,70,71 width_8 busLabel_8">/8/</text></svg>