<svg xmlns="http://www.w3.org/2000/svg" xmlns:xlink="http://www.w3.org/1999/xlink" xmlns:s="https://github.com/nturley/netlistsvg" width="675" height="838"><style>svg {
  stroke:#000;
  fill:none;
}
text {
  fill:#000;
  stroke:none;
  font-size:10px;
  font-weight: bold;
  font-family: "Courier New", monospace;
}
line {
    stroke-linecap: round;
}
.nodelabel {
  text-anchor: middle;
}
.inputPortLabel {
  text-anchor: end;
}
.splitjoinBody {
  fill:#000;
}</style><g s:type="generic" transform="translate(484,508.5)" s:width="30" s:height="40" id="cell_cct0"><text x="15" y="-4" class="nodelabel cell_cct0" s:attribute="ref">cct</text><rect width="30" height="160" s:generic="body" class="cell_cct0"/><g transform="translate(0,10)" s:x="0" s:y="10" s:pid="in0" id="port_cct0~B"><text x="-3" y="-4" class="inputPortLabel cell_cct0">B</text></g><g transform="translate(0,30)" s:x="0" s:y="10" s:pid="in0" id="port_cct0~C"><text x="-3" y="-4" class="inputPortLabel cell_cct0">C</text></g><g transform="translate(0,50)" s:x="0" s:y="10" s:pid="in0" id="port_cct0~D"><text x="-3" y="-4" class="inputPortLabel cell_cct0">D</text></g><g transform="translate(0,70)" s:x="0" s:y="10" s:pid="in0" id="port_cct0~U"><text x="-3" y="-4" class="inputPortLabel cell_cct0">U</text></g><g transform="translate(0,90)" s:x="0" s:y="10" s:pid="in0" id="port_cct0~cct"><text x="-3" y="-4" class="inputPortLabel cell_cct0">cct</text></g><g transform="translate(0,110)" s:x="0" s:y="10" s:pid="in0" id="port_cct0~clk"><text x="-3" y="-4" class="inputPortLabel cell_cct0">clk</text></g><g transform="translate(0,130)" s:x="0" s:y="10" s:pid="in0" id="port_cct0~rs"><text x="-3" y="-4" class="inputPortLabel cell_cct0">rs</text></g><g transform="translate(0,150)" s:x="0" s:y="10" s:pid="in0" id="port_cct0~sh"><text x="-3" y="-4" class="inputPortLabel cell_cct0">sh</text></g><g transform="translate(30,10)" s:x="30" s:y="10" s:pid="out0" id="port_cct0~R"><text x="5" y="-4" style="fill:#000; stroke:none" class="cell_cct0">R</text></g></g><g s:type="generic" transform="translate(338,190)" s:width="30" s:height="40" id="cell_comp0"><text x="15" y="-4" class="nodelabel cell_comp0" s:attribute="ref">comp</text><rect width="30" height="100" s:generic="body" class="cell_comp0"/><g transform="translate(0,10)" s:x="0" s:y="10" s:pid="in0" id="port_comp0~R"><text x="-3" y="-4" class="inputPortLabel cell_comp0">R</text></g><g transform="translate(0,30)" s:x="0" s:y="10" s:pid="in0" id="port_comp0~asg"><text x="-3" y="-4" class="inputPortLabel cell_comp0">asg</text></g><g transform="translate(0,50)" s:x="0" s:y="10" s:pid="in0" id="port_comp0~clk"><text x="-3" y="-4" class="inputPortLabel cell_comp0">clk</text></g><g transform="translate(0,70)" s:x="0" s:y="10" s:pid="in0" id="port_comp0~crc"><text x="-3" y="-4" class="inputPortLabel cell_comp0">crc</text></g><g transform="translate(0,90)" s:x="0" s:y="10" s:pid="in0" id="port_comp0~rs"><text x="-3" y="-4" class="inputPortLabel cell_comp0">rs</text></g><g transform="translate(30,10)" s:x="30" s:y="10" s:pid="out0" id="port_comp0~o"><text x="5" y="-4" style="fill:#000; stroke:none" class="cell_comp0">o</text></g></g><g s:type="generic" transform="translate(338,338)" s:width="30" s:height="40" id="cell_comp1"><text x="15" y="-4" class="nodelabel cell_comp1" s:attribute="ref">comp</text><rect width="30" height="100" s:generic="body" class="cell_comp1"/><g transform="translate(0,10)" s:x="0" s:y="10" s:pid="in0" id="port_comp1~R"><text x="-3" y="-4" class="inputPortLabel cell_comp1">R</text></g><g transform="translate(0,30)" s:x="0" s:y="10" s:pid="in0" id="port_comp1~asg"><text x="-3" y="-4" class="inputPortLabel cell_comp1">asg</text></g><g transform="translate(0,50)" s:x="0" s:y="10" s:pid="in0" id="port_comp1~clk"><text x="-3" y="-4" class="inputPortLabel cell_comp1">clk</text></g><g transform="translate(0,70)" s:x="0" s:y="10" s:pid="in0" id="port_comp1~crc"><text x="-3" y="-4" class="inputPortLabel cell_comp1">crc</text></g><g transform="translate(0,90)" s:x="0" s:y="10" s:pid="in0" id="port_comp1~rs"><text x="-3" y="-4" class="inputPortLabel cell_comp1">rs</text></g><g transform="translate(30,10)" s:x="30" s:y="10" s:pid="out0" id="port_comp1~o"><text x="5" y="-4" style="fill:#000; stroke:none" class="cell_comp1">o</text></g></g><g s:type="generic" transform="translate(338,486)" s:width="30" s:height="40" id="cell_comp2"><text x="15" y="-4" class="nodelabel cell_comp2" s:attribute="ref">comp</text><rect width="30" height="100" s:generic="body" class="cell_comp2"/><g transform="translate(0,10)" s:x="0" s:y="10" s:pid="in0" id="port_comp2~R"><text x="-3" y="-4" class="inputPortLabel cell_comp2">R</text></g><g transform="translate(0,30)" s:x="0" s:y="10" s:pid="in0" id="port_comp2~asg"><text x="-3" y="-4" class="inputPortLabel cell_comp2">asg</text></g><g transform="translate(0,50)" s:x="0" s:y="10" s:pid="in0" id="port_comp2~clk"><text x="-3" y="-4" class="inputPortLabel cell_comp2">clk</text></g><g transform="translate(0,70)" s:x="0" s:y="10" s:pid="in0" id="port_comp2~crc"><text x="-3" y="-4" class="inputPortLabel cell_comp2">crc</text></g><g transform="translate(0,90)" s:x="0" s:y="10" s:pid="in0" id="port_comp2~rs"><text x="-3" y="-4" class="inputPortLabel cell_comp2">rs</text></g><g transform="translate(30,10)" s:x="30" s:y="10" s:pid="out0" id="port_comp2~o"><text x="5" y="-4" style="fill:#000; stroke:none" class="cell_comp2">o</text></g></g><g s:type="generic" transform="translate(338,22)" s:width="30" s:height="40" id="cell_compb0"><text x="15" y="-4" class="nodelabel cell_compb0" s:attribute="ref">compb</text><rect width="30" height="120" s:generic="body" class="cell_compb0"/><g transform="translate(0,10)" s:x="0" s:y="10" s:pid="in0" id="port_compb0~B"><text x="-3" y="-4" class="inputPortLabel cell_compb0">B</text></g><g transform="translate(0,30)" s:x="0" s:y="10" s:pid="in0" id="port_compb0~R"><text x="-3" y="-4" class="inputPortLabel cell_compb0">R</text></g><g transform="translate(0,50)" s:x="0" s:y="10" s:pid="in0" id="port_compb0~asg"><text x="-3" y="-4" class="inputPortLabel cell_compb0">asg</text></g><g transform="translate(0,70)" s:x="0" s:y="10" s:pid="in0" id="port_compb0~clk"><text x="-3" y="-4" class="inputPortLabel cell_compb0">clk</text></g><g transform="translate(0,90)" s:x="0" s:y="10" s:pid="in0" id="port_compb0~crc"><text x="-3" y="-4" class="inputPortLabel cell_compb0">crc</text></g><g transform="translate(0,110)" s:x="0" s:y="10" s:pid="in0" id="port_compb0~rs"><text x="-3" y="-4" class="inputPortLabel cell_compb0">rs</text></g><g transform="translate(30,10)" s:x="30" s:y="10" s:pid="out0" id="port_compb0~o"><text x="5" y="-4" style="fill:#000; stroke:none" class="cell_compb0">o</text></g></g><g s:type="generic" transform="translate(615,687)" s:width="30" s:height="40" id="cell_cont0"><text x="15" y="-4" class="nodelabel cell_cont0" s:attribute="ref">cont</text><rect width="30" height="60" s:generic="body" class="cell_cont0"/><g transform="translate(0,10)" s:x="0" s:y="10" s:pid="in0" id="port_cont0~asg"><text x="-3" y="-4" class="inputPortLabel cell_cont0">asg</text></g><g transform="translate(0,30)" s:x="0" s:y="10" s:pid="in0" id="port_cont0~clk"><text x="-3" y="-4" class="inputPortLabel cell_cont0">clk</text></g><g transform="translate(0,50)" s:x="0" s:y="10" s:pid="in0" id="port_cont0~rs"><text x="-3" y="-4" class="inputPortLabel cell_cont0">rs</text></g><g transform="translate(30,10)" s:x="30" s:y="10" s:pid="out0" id="port_cont0~h"><text x="5" y="-4" style="fill:#000; stroke:none" class="cell_cont0">h</text></g></g><g s:type="generic" transform="translate(123,486)" s:width="30" s:height="40" id="cell_control_BIN_BCD0"><text x="15" y="-4" class="nodelabel cell_control_BIN_BCD0" s:attribute="ref">control_BIN_BCD</text><rect width="30" height="120" s:generic="body" class="cell_control_BIN_BCD0"/><g transform="translate(0,10)" s:x="0" s:y="10" s:pid="in0" id="port_control_BIN_BCD0~clk"><text x="-3" y="-4" class="inputPortLabel cell_control_BIN_BCD0">clk</text></g><g transform="translate(0,30)" s:x="0" s:y="10" s:pid="in0" id="port_control_BIN_BCD0~h"><text x="-3" y="-4" class="inputPortLabel cell_control_BIN_BCD0">h</text></g><g transform="translate(0,50)" s:x="0" s:y="10" s:pid="in0" id="port_control_BIN_BCD0~init"><text x="-3" y="-4" class="inputPortLabel cell_control_BIN_BCD0">init</text></g><g transform="translate(0,70)" s:x="0" s:y="10" s:pid="in0" id="port_control_BIN_BCD0~rst"><text x="-3" y="-4" class="inputPortLabel cell_control_BIN_BCD0">rst</text></g><g transform="translate(30,10)" s:x="30" s:y="10" s:pid="out0" id="port_control_BIN_BCD0~asg"><text x="5" y="-4" style="fill:#000; stroke:none" class="cell_control_BIN_BCD0">asg</text></g><g transform="translate(30,30)" s:x="30" s:y="10" s:pid="out0" id="port_control_BIN_BCD0~cct"><text x="5" y="-4" style="fill:#000; stroke:none" class="cell_control_BIN_BCD0">cct</text></g><g transform="translate(30,50)" s:x="30" s:y="10" s:pid="out0" id="port_control_BIN_BCD0~crc"><text x="5" y="-4" style="fill:#000; stroke:none" class="cell_control_BIN_BCD0">crc</text></g><g transform="translate(30,70)" s:x="30" s:y="10" s:pid="out0" id="port_control_BIN_BCD0~done"><text x="5" y="-4" style="fill:#000; stroke:none" class="cell_control_BIN_BCD0">done</text></g><g transform="translate(30,90)" s:x="30" s:y="10" s:pid="out0" id="port_control_BIN_BCD0~rs"><text x="5" y="-4" style="fill:#000; stroke:none" class="cell_control_BIN_BCD0">rs</text></g><g transform="translate(30,110)" s:x="30" s:y="10" s:pid="out0" id="port_control_BIN_BCD0~sh"><text x="5" y="-4" style="fill:#000; stroke:none" class="cell_control_BIN_BCD0">sh</text></g></g><g s:type="inputExt" transform="translate(22,416.5)" s:width="30" s:height="20" id="cell_clk"><text x="15" y="-4" class="nodelabel cell_clk" s:attribute="ref">clk</text><s:alias val="$_inputExt_"/><path d="M0,0 L0,20 L15,20 L30,10 L15,0 Z" class="cell_clk"/><g s:x="30" s:y="10" s:pid="Y"/></g><g s:type="inputExt" transform="translate(22,481.5)" s:width="30" s:height="20" id="cell_init"><text x="15" y="-4" class="nodelabel cell_init" s:attribute="ref">init</text><s:alias val="$_inputExt_"/><path d="M0,0 L0,20 L15,20 L30,10 L15,0 Z" class="cell_init"/><g s:x="30" s:y="10" s:pid="Y"/></g><g s:type="inputExt" transform="translate(22,546.5)" s:width="30" s:height="20" id="cell_rst"><text x="15" y="-4" class="nodelabel cell_rst" s:attribute="ref">rst</text><s:alias val="$_inputExt_"/><path d="M0,0 L0,20 L15,20 L30,10 L15,0 Z" class="cell_rst"/><g s:x="30" s:y="10" s:pid="Y"/></g><g s:type="inputExt" transform="translate(22,22.5)" s:width="30" s:height="20" id="cell_B"><text x="15" y="-4" class="nodelabel cell_B" s:attribute="ref">B</text><s:alias val="$_inputExt_"/><path d="M0,0 L0,20 L15,20 L30,10 L15,0 Z" class="cell_B"/><g s:x="30" s:y="10" s:pid="Y"/></g><g s:type="outputExt" transform="translate(615,509)" s:width="30" s:height="20" id="cell_R"><text x="15" y="-4" class="nodelabel cell_R" s:attribute="ref">R</text><s:alias val="$_outputExt_"/><path d="M30,0 L30,20 L15,20 L0,10 L15,0 Z" class="cell_R"/><g s:x="0" s:y="10" s:pid="A"/></g><g s:type="outputExt" transform="translate(615,795)" s:width="30" s:height="20" id="cell_done"><text x="15" y="-4" class="nodelabel cell_done" s:attribute="ref">done</text><s:alias val="$_outputExt_"/><path d="M30,0 L30,20 L15,20 L0,10 L15,0 Z" class="cell_done"/><g s:x="0" s:y="10" s:pid="A"/></g><g s:type="split" transform="translate(22,291.5)" s:width="5" s:height="40" id="cell_$split$,13,14,15,16,17,18,19,20,21,22,23,24,25,26,27,28,29,30,31,32,"><rect width="5" height="80" class="splitjoinBody" s:generic="body"/><s:alias val="$_split_"/><g s:x="0" s:y="20" s:pid="in"/><g transform="translate(4,10)" s:x="4" s:y="10" s:pid="out0"><text x="5" y="-4">16:19</text></g><g transform="translate(4,30)" s:x="4" s:y="10" s:pid="out0"><text x="5" y="-4">12:15</text></g><g transform="translate(4,50)" s:x="4" s:y="10" s:pid="out0"><text x="5" y="-4">8:11</text></g><g transform="translate(4,70)" s:x="4" s:y="10" s:pid="out0"><text x="5" y="-4">0:7</text></g></g><line x1="369" x2="455" y1="32.5" y2="32.5" class="net_34,35,36,37,38,39,40,41 width_8" style="stroke-width: 2"/><line x1="455" x2="455" y1="32.5" y2="519" class="net_34,35,36,37,38,39,40,41 width_8" style="stroke-width: 2"/><line x1="455" x2="484" y1="519" y2="519" class="net_34,35,36,37,38,39,40,41 width_8" style="stroke-width: 2"/><line x1="369" x2="445" y1="200.5" y2="200.5" class="net_42,43,44,45 width_4" style="stroke-width: 2"/><line x1="445" x2="445" y1="200.5" y2="539" class="net_42,43,44,45 width_4" style="stroke-width: 2"/><line x1="445" x2="484" y1="539" y2="539" class="net_42,43,44,45 width_4" style="stroke-width: 2"/><line x1="369" x2="435" y1="348.5" y2="348.5" class="net_46,47,48,49 width_4" style="stroke-width: 2"/><line x1="435" x2="435" y1="348.5" y2="559" class="net_46,47,48,49 width_4" style="stroke-width: 2"/><line x1="435" x2="484" y1="559" y2="559" class="net_46,47,48,49 width_4" style="stroke-width: 2"/><line x1="369" x2="425" y1="496.5" y2="496.5" class="net_50,51,52,53 width_4" style="stroke-width: 2"/><line x1="425" x2="425" y1="496.5" y2="579" class="net_50,51,52,53 width_4" style="stroke-width: 2"/><line x1="425" x2="484" y1="579" y2="579" class="net_50,51,52,53 width_4" style="stroke-width: 2"/><line x1="154" x2="249" y1="516.5" y2="516.5" class="net_54 width_1" style="stroke-width: 1"/><line x1="249" x2="249" y1="516.5" y2="599" class="net_54 width_1" style="stroke-width: 1"/><line x1="249" x2="484" y1="599" y2="599" class="net_54 width_1" style="stroke-width: 1"/><line x1="52" x2="88" y1="426.5" y2="426.5" class="net_2 width_1" style="stroke-width: 1"/><line x1="88" x2="88" y1="426.5" y2="619" class="net_2 width_1" style="stroke-width: 1"/><circle cx="88" cy="426.5" r="2" style="fill:#000" class="net_2 width_1"/><circle cx="88" cy="619" r="2" style="fill:#000" class="net_2 width_1"/><line x1="88" x2="484" y1="619" y2="619" class="net_2 width_1" style="stroke-width: 1"/><line x1="52" x2="88" y1="426.5" y2="426.5" class="net_2 width_1" style="stroke-width: 1"/><line x1="88" x2="88" y1="426.5" y2="240.5" class="net_2 width_1" style="stroke-width: 1"/><circle cx="88" cy="240.5" r="2" style="fill:#000" class="net_2 width_1"/><line x1="88" x2="338" y1="240.5" y2="240.5" class="net_2 width_1" style="stroke-width: 1"/><line x1="52" x2="88" y1="426.5" y2="426.5" class="net_2 width_1" style="stroke-width: 1"/><line x1="88" x2="88" y1="426.5" y2="388.5" class="net_2 width_1" style="stroke-width: 1"/><circle cx="88" cy="388.5" r="2" style="fill:#000" class="net_2 width_1"/><line x1="88" x2="338" y1="388.5" y2="388.5" class="net_2 width_1" style="stroke-width: 1"/><line x1="52" x2="289" y1="426.5" y2="426.5" class="net_2 width_1" style="stroke-width: 1"/><line x1="289" x2="289" y1="426.5" y2="536.5" class="net_2 width_1" style="stroke-width: 1"/><line x1="289" x2="338" y1="536.5" y2="536.5" class="net_2 width_1" style="stroke-width: 1"/><line x1="52" x2="88" y1="426.5" y2="426.5" class="net_2 width_1" style="stroke-width: 1"/><line x1="88" x2="88" y1="426.5" y2="92.5" class="net_2 width_1" style="stroke-width: 1"/><line x1="88" x2="338" y1="92.5" y2="92.5" class="net_2 width_1" style="stroke-width: 1"/><line x1="52" x2="88" y1="426.5" y2="426.5" class="net_2 width_1" style="stroke-width: 1"/><line x1="88" x2="88" y1="426.5" y2="717.5" class="net_2 width_1" style="stroke-width: 1"/><line x1="88" x2="615" y1="717.5" y2="717.5" class="net_2 width_1" style="stroke-width: 1"/><line x1="52" x2="88" y1="426.5" y2="426.5" class="net_2 width_1" style="stroke-width: 1"/><line x1="88" x2="88" y1="426.5" y2="496.5" class="net_2 width_1" style="stroke-width: 1"/><circle cx="88" cy="496.5" r="2" style="fill:#000" class="net_2 width_1"/><line x1="88" x2="123" y1="496.5" y2="496.5" class="net_2 width_1" style="stroke-width: 1"/><line x1="154" x2="299" y1="576.5" y2="576.5" class="net_55 width_1" style="stroke-width: 1"/><line x1="299" x2="299" y1="576.5" y2="639" class="net_55 width_1" style="stroke-width: 1"/><circle cx="299" cy="576.5" r="2" style="fill:#000" class="net_55 width_1"/><circle cx="299" cy="639" r="2" style="fill:#000" class="net_55 width_1"/><line x1="299" x2="484" y1="639" y2="639" class="net_55 width_1" style="stroke-width: 1"/><line x1="154" x2="299" y1="576.5" y2="576.5" class="net_55 width_1" style="stroke-width: 1"/><line x1="299" x2="299" y1="576.5" y2="280.5" class="net_55 width_1" style="stroke-width: 1"/><circle cx="299" cy="280.5" r="2" style="fill:#000" class="net_55 width_1"/><line x1="299" x2="338" y1="280.5" y2="280.5" class="net_55 width_1" style="stroke-width: 1"/><line x1="154" x2="299" y1="576.5" y2="576.5" class="net_55 width_1" style="stroke-width: 1"/><line x1="299" x2="299" y1="576.5" y2="428.5" class="net_55 width_1" style="stroke-width: 1"/><circle cx="299" cy="428.5" r="2" style="fill:#000" class="net_55 width_1"/><line x1="299" x2="338" y1="428.5" y2="428.5" class="net_55 width_1" style="stroke-width: 1"/><line x1="154" x2="338" y1="576.5" y2="576.5" class="net_55 width_1" style="stroke-width: 1"/><line x1="154" x2="299" y1="576.5" y2="576.5" class="net_55 width_1" style="stroke-width: 1"/><line x1="299" x2="299" y1="576.5" y2="132.5" class="net_55 width_1" style="stroke-width: 1"/><line x1="299" x2="338" y1="132.5" y2="132.5" class="net_55 width_1" style="stroke-width: 1"/><line x1="154" x2="299" y1="576.5" y2="576.5" class="net_55 width_1" style="stroke-width: 1"/><line x1="299" x2="299" y1="576.5" y2="737.5" class="net_55 width_1" style="stroke-width: 1"/><line x1="299" x2="615" y1="737.5" y2="737.5" class="net_55 width_1" style="stroke-width: 1"/><line x1="154" x2="239" y1="596.5" y2="596.5" class="net_56 width_1" style="stroke-width: 1"/><line x1="239" x2="239" y1="596.5" y2="659" class="net_56 width_1" style="stroke-width: 1"/><line x1="239" x2="484" y1="659" y2="659" class="net_56 width_1" style="stroke-width: 1"/><line x1="27" x2="68" y1="302" y2="302" class="net_29,30,31,32 width_4" style="stroke-width: 2"/><line x1="68" x2="68" y1="302" y2="200.5" class="net_29,30,31,32 width_4" style="stroke-width: 2"/><line x1="68" x2="338" y1="200.5" y2="200.5" class="net_29,30,31,32 width_4" style="stroke-width: 2"/><line x1="154" x2="259" y1="496.5" y2="496.5" class="net_57 width_1" style="stroke-width: 1"/><line x1="259" x2="259" y1="496.5" y2="220.5" class="net_57 width_1" style="stroke-width: 1"/><circle cx="259" cy="496.5" r="2" style="fill:#000" class="net_57 width_1"/><circle cx="259" cy="220.5" r="2" style="fill:#000" class="net_57 width_1"/><line x1="259" x2="338" y1="220.5" y2="220.5" class="net_57 width_1" style="stroke-width: 1"/><line x1="154" x2="259" y1="496.5" y2="496.5" class="net_57 width_1" style="stroke-width: 1"/><line x1="259" x2="259" y1="496.5" y2="368.5" class="net_57 width_1" style="stroke-width: 1"/><circle cx="259" cy="368.5" r="2" style="fill:#000" class="net_57 width_1"/><line x1="259" x2="338" y1="368.5" y2="368.5" class="net_57 width_1" style="stroke-width: 1"/><line x1="154" x2="259" y1="496.5" y2="496.5" class="net_57 width_1" style="stroke-width: 1"/><line x1="259" x2="259" y1="496.5" y2="516.5" class="net_57 width_1" style="stroke-width: 1"/><circle cx="259" cy="516.5" r="2" style="fill:#000" class="net_57 width_1"/><line x1="259" x2="338" y1="516.5" y2="516.5" class="net_57 width_1" style="stroke-width: 1"/><line x1="154" x2="259" y1="496.5" y2="496.5" class="net_57 width_1" style="stroke-width: 1"/><line x1="259" x2="259" y1="496.5" y2="72.5" class="net_57 width_1" style="stroke-width: 1"/><line x1="259" x2="338" y1="72.5" y2="72.5" class="net_57 width_1" style="stroke-width: 1"/><line x1="154" x2="259" y1="496.5" y2="496.5" class="net_57 width_1" style="stroke-width: 1"/><line x1="259" x2="259" y1="496.5" y2="697.5" class="net_57 width_1" style="stroke-width: 1"/><line x1="259" x2="615" y1="697.5" y2="697.5" class="net_57 width_1" style="stroke-width: 1"/><line x1="154" x2="279" y1="536.5" y2="536.5" class="net_58 width_1" style="stroke-width: 1"/><line x1="279" x2="279" y1="536.5" y2="260.5" class="net_58 width_1" style="stroke-width: 1"/><circle cx="279" cy="536.5" r="2" style="fill:#000" class="net_58 width_1"/><circle cx="279" cy="260.5" r="2" style="fill:#000" class="net_58 width_1"/><line x1="279" x2="338" y1="260.5" y2="260.5" class="net_58 width_1" style="stroke-width: 1"/><line x1="154" x2="279" y1="536.5" y2="536.5" class="net_58 width_1" style="stroke-width: 1"/><line x1="279" x2="279" y1="536.5" y2="408.5" class="net_58 width_1" style="stroke-width: 1"/><circle cx="279" cy="408.5" r="2" style="fill:#000" class="net_58 width_1"/><line x1="279" x2="338" y1="408.5" y2="408.5" class="net_58 width_1" style="stroke-width: 1"/><line x1="154" x2="279" y1="536.5" y2="536.5" class="net_58 width_1" style="stroke-width: 1"/><line x1="279" x2="279" y1="536.5" y2="556.5" class="net_58 width_1" style="stroke-width: 1"/><line x1="279" x2="338" y1="556.5" y2="556.5" class="net_58 width_1" style="stroke-width: 1"/><line x1="154" x2="279" y1="536.5" y2="536.5" class="net_58 width_1" style="stroke-width: 1"/><line x1="279" x2="279" y1="536.5" y2="112.5" class="net_58 width_1" style="stroke-width: 1"/><line x1="279" x2="338" y1="112.5" y2="112.5" class="net_58 width_1" style="stroke-width: 1"/><line x1="27" x2="309" y1="322" y2="322" class="net_25,26,27,28 width_4" style="stroke-width: 2"/><line x1="309" x2="309" y1="322" y2="348.5" class="net_25,26,27,28 width_4" style="stroke-width: 2"/><line x1="309" x2="338" y1="348.5" y2="348.5" class="net_25,26,27,28 width_4" style="stroke-width: 2"/><line x1="27" x2="68" y1="342" y2="342" class="net_21,22,23,24 width_4" style="stroke-width: 2"/><line x1="68" x2="68" y1="342" y2="410.5" class="net_21,22,23,24 width_4" style="stroke-width: 2"/><line x1="68" x2="269" y1="410.5" y2="410.5" class="net_21,22,23,24 width_4" style="stroke-width: 2"/><line x1="269" x2="269" y1="410.5" y2="496.5" class="net_21,22,23,24 width_4" style="stroke-width: 2"/><line x1="269" x2="338" y1="496.5" y2="496.5" class="net_21,22,23,24 width_4" style="stroke-width: 2"/><line x1="52" x2="338" y1="32.5" y2="32.5" class="net_5,6,7,8,9,10,11,12 width_8" style="stroke-width: 2"/><line x1="27" x2="78" y1="362" y2="362" class="net_13,14,15,16,17,18,19,20 width_8" style="stroke-width: 2"/><line x1="78" x2="78" y1="362" y2="52.5" class="net_13,14,15,16,17,18,19,20 width_8" style="stroke-width: 2"/><line x1="78" x2="338" y1="52.5" y2="52.5" class="net_13,14,15,16,17,18,19,20 width_8" style="stroke-width: 2"/><line x1="646" x2="663" y1="697.5" y2="697.5" class="net_59 width_1" style="stroke-width: 1"/><line x1="663" x2="663" y1="697.5" y2="825" class="net_59 width_1" style="stroke-width: 1"/><line x1="663" x2="78" y1="825" y2="825" class="net_59 width_1" style="stroke-width: 1"/><line x1="78" x2="78" y1="825" y2="516.5" class="net_59 width_1" style="stroke-width: 1"/><line x1="78" x2="123" y1="516.5" y2="516.5" class="net_59 width_1" style="stroke-width: 1"/><line x1="52" x2="68" y1="491.5" y2="491.5" class="net_3 width_1" style="stroke-width: 1"/><line x1="68" x2="68" y1="491.5" y2="536.5" class="net_3 width_1" style="stroke-width: 1"/><line x1="68" x2="123" y1="536.5" y2="536.5" class="net_3 width_1" style="stroke-width: 1"/><line x1="52" x2="123" y1="556.5" y2="556.5" class="net_4 width_1" style="stroke-width: 1"/><line x1="515" x2="615" y1="519" y2="519" class="net_13,14,15,16,17,18,19,20,21,22,23,24,25,26,27,28,29,30,31,32 width_20" style="stroke-width: 2"/><line x1="515" x2="532" y1="519" y2="519" class="net_13,14,15,16,17,18,19,20,21,22,23,24,25,26,27,28,29,30,31,32 width_20" style="stroke-width: 2"/><line x1="532" x2="532" y1="519" y2="681.5" class="net_13,14,15,16,17,18,19,20,21,22,23,24,25,26,27,28,29,30,31,32 width_20" style="stroke-width: 2"/><line x1="532" x2="12" y1="681.5" y2="681.5" class="net_13,14,15,16,17,18,19,20,21,22,23,24,25,26,27,28,29,30,31,32 width_20" style="stroke-width: 2"/><line x1="12" x2="12" y1="681.5" y2="312" class="net_13,14,15,16,17,18,19,20,21,22,23,24,25,26,27,28,29,30,31,32 width_20" style="stroke-width: 2"/><circle cx="532" cy="519" r="3" style="fill:#000" class="net_13,14,15,16,17,18,19,20,21,22,23,24,25,26,27,28,29,30,31,32 width_20"/><line x1="12" x2="22" y1="312" y2="312" class="net_13,14,15,16,17,18,19,20,21,22,23,24,25,26,27,28,29,30,31,32 width_20" style="stroke-width: 2"/><line x1="154" x2="229" y1="556.5" y2="556.5" class="net_33 width_1" style="stroke-width: 1"/><line x1="229" x2="229" y1="556.5" y2="805" class="net_33 width_1" style="stroke-width: 1"/><line x1="229" x2="615" y1="805" y2="805" class="net_33 width_1" style="stroke-width: 1"/><rect x="412" y="27.5" width="16" height="9" class="net_34,35,36,37,38,39,40,41 width_8 busLabel_8" style="fill: white; stroke: none"/><text x="411" y="35.5" class="net_34,35,36,37,38,39,40,41 width_8 busLabel_8">/8/</text><rect x="412" y="195.5" width="16" height="9" class="net_42,43,44,45 width_4 busLabel_4" style="fill: white; stroke: none"/><text x="411" y="203.5" class="net_42,43,44,45 width_4 busLabel_4">/4/</text><rect x="412" y="343.5" width="16" height="9" class="net_46,47,48,49 width_4 busLabel_4" style="fill: white; stroke: none"/><text x="411" y="351.5" class="net_46,47,48,49 width_4 busLabel_4">/4/</text><rect x="412" y="491.5" width="16" height="9" class="net_50,51,52,53 width_4 busLabel_4" style="fill: white; stroke: none"/><text x="411" y="499.5" class="net_50,51,52,53 width_4 busLabel_4">/4/</text><rect x="157.5" y="195.5" width="16" height="9" class="net_29,30,31,32 width_4 busLabel_4" style="fill: white; stroke: none"/><text x="156.5" y="203.5" class="net_29,30,31,32 width_4 busLabel_4">/4/</text><rect x="157.5" y="317" width="16" height="9" class="net_25,26,27,28 width_4 busLabel_4" style="fill: white; stroke: none"/><text x="156.5" y="325" class="net_25,26,27,28 width_4 busLabel_4">/4/</text><rect x="157.5" y="405.5" width="16" height="9" class="net_21,22,23,24 width_4 busLabel_4" style="fill: white; stroke: none"/><text x="156.5" y="413.5" class="net_21,22,23,24 width_4 busLabel_4">/4/</text><rect x="157.5" y="27.5" width="16" height="9" class="net_5,6,7,8,9,10,11,12 width_8 busLabel_8" style="fill: white; stroke: none"/><text x="156.5" y="35.5" class="net_5,6,7,8,9,10,11,12 width_8 busLabel_8">/8/</text><rect x="157.5" y="47.5" width="16" height="9" class="net_13,14,15,16,17,18,19,20 width_8 busLabel_8" style="fill: white; stroke: none"/><text x="156.5" y="55.5" class="net_13,14,15,16,17,18,19,20 width_8 busLabel_8">/8/</text><rect x="346.5" y="676.5" width="22" height="9" class="net_13,14,15,16,17,18,19,20,21,22,23,24,25,26,27,28,29,30,31,32 width_20 busLabel_20" style="fill: white; stroke: none"/><text x="345.5" y="684.5" class="net_13,14,15,16,17,18,19,20,21,22,23,24,25,26,27,28,29,30,31,32 width_20 busLabel_20">/20/</text><rect x="346.5" y="676.5" width="22" height="9" class="net_13,14,15,16,17,18,19,20,21,22,23,24,25,26,27,28,29,30,31,32 width_20 busLabel_20" style="fill: white; stroke: none"/><text x="345.5" y="684.5" class="net_13,14,15,16,17,18,19,20,21,22,23,24,25,26,27,28,29,30,31,32 width_20 busLabel_20">/20/</text></svg>