<svg xmlns="http://www.w3.org/2000/svg" xmlns:xlink="http://www.w3.org/1999/xlink" xmlns:s="https://github.com/nturley/netlistsvg" width="565" height="355"><style>svg {
  stroke:#000;
  fill:none;
}
text {
  fill:#000;
  stroke:none;
  font-size:10px;
  font-weight: bold;
  font-family: "Courier New", monospace;
}
line {
    stroke-linecap: round;
}
.nodelabel {
  text-anchor: middle;
}
.inputPortLabel {
  text-anchor: end;
}
.splitjoinBody {
  fill:#000;
}</style><g s:type="generic" transform="translate(395,192.5)" s:width="30" s:height="40" id="cell_acc0"><text x="15" y="-4" class="nodelabel cell_acc0" s:attribute="ref">acc</text><rect width="30" height="60" s:generic="body" class="cell_acc0"/><g transform="translate(0,10)" s:x="0" s:y="10" s:pid="in0" id="port_acc0~ac"><text x="-3" y="-4" class="inputPortLabel cell_acc0">ac</text></g><g transform="translate(0,30)" s:x="0" s:y="10" s:pid="in0" id="port_acc0~clk"><text x="-3" y="-4" class="inputPortLabel cell_acc0">clk</text></g><g transform="translate(0,50)" s:x="0" s:y="10" s:pid="in0" id="port_acc0~rs"><text x="-3" y="-4" class="inputPortLabel cell_acc0">rs</text></g><g transform="translate(30,10)" s:x="30" s:y="10" s:pid="out0" id="port_acc0~R"><text x="5" y="-4" style="fill:#000; stroke:none" class="cell_acc0">R</text></g></g><g s:type="generic" transform="translate(135,110)" s:width="30" s:height="40" id="cell_comp20"><text x="15" y="-4" class="nodelabel cell_comp20" s:attribute="ref">comp2</text><rect width="30" height="20" s:generic="body" class="cell_comp20"/><g transform="translate(0,10)" s:x="0" s:y="10" s:pid="in0" id="port_comp20~DEN"><text x="-3" y="-4" class="inputPortLabel cell_comp20">DEN</text></g><g transform="translate(30,10)" s:x="30" s:y="10" s:pid="out0" id="port_comp20~c2"><text x="5" y="-4" style="fill:#000; stroke:none" class="cell_comp20">c2</text></g></g><g s:type="generic" transform="translate(244,172.5)" s:width="30" s:height="40" id="cell_control_DIV0"><text x="15" y="-4" class="nodelabel cell_control_DIV0" s:attribute="ref">control_DIV</text><rect width="30" height="80" s:generic="body" class="cell_control_DIV0"/><g transform="translate(0,10)" s:x="0" s:y="10" s:pid="in0" id="port_control_DIV0~DP"><text x="-3" y="-4" class="inputPortLabel cell_control_DIV0">DP</text></g><g transform="translate(0,30)" s:x="0" s:y="10" s:pid="in0" id="port_control_DIV0~clk"><text x="-3" y="-4" class="inputPortLabel cell_control_DIV0">clk</text></g><g transform="translate(0,50)" s:x="0" s:y="10" s:pid="in0" id="port_control_DIV0~init"><text x="-3" y="-4" class="inputPortLabel cell_control_DIV0">init</text></g><g transform="translate(0,70)" s:x="0" s:y="10" s:pid="in0" id="port_control_DIV0~rst"><text x="-3" y="-4" class="inputPortLabel cell_control_DIV0">rst</text></g><g transform="translate(30,10)" s:x="30" s:y="10" s:pid="out0" id="port_control_DIV0~ac"><text x="5" y="-4" style="fill:#000; stroke:none" class="cell_control_DIV0">ac</text></g><g transform="translate(30,30)" s:x="30" s:y="10" s:pid="out0" id="port_control_DIV0~de"><text x="5" y="-4" style="fill:#000; stroke:none" class="cell_control_DIV0">de</text></g><g transform="translate(30,50)" s:x="30" s:y="10" s:pid="out0" id="port_control_DIV0~done"><text x="5" y="-4" style="fill:#000; stroke:none" class="cell_control_DIV0">done</text></g><g transform="translate(30,70)" s:x="30" s:y="10" s:pid="out0" id="port_control_DIV0~rs"><text x="5" y="-4" style="fill:#000; stroke:none" class="cell_control_DIV0">rs</text></g></g><g s:type="generic" transform="translate(395,44.5)" s:width="30" s:height="40" id="cell_dec0"><text x="15" y="-4" class="nodelabel cell_dec0" s:attribute="ref">dec</text><rect width="30" height="100" s:generic="body" class="cell_dec0"/><g transform="translate(0,10)" s:x="0" s:y="10" s:pid="in0" id="port_dec0~NUM"><text x="-3" y="-4" class="inputPortLabel cell_dec0">NUM</text></g><g transform="translate(0,30)" s:x="0" s:y="10" s:pid="in0" id="port_dec0~c2"><text x="-3" y="-4" class="inputPortLabel cell_dec0">c2</text></g><g transform="translate(0,50)" s:x="0" s:y="10" s:pid="in0" id="port_dec0~clk"><text x="-3" y="-4" class="inputPortLabel cell_dec0">clk</text></g><g transform="translate(0,70)" s:x="0" s:y="10" s:pid="in0" id="port_dec0~de"><text x="-3" y="-4" class="inputPortLabel cell_dec0">de</text></g><g transform="translate(0,90)" s:x="0" s:y="10" s:pid="in0" id="port_dec0~rs"><text x="-3" y="-4" class="inputPortLabel cell_dec0">rs</text></g><g transform="translate(30,10)" s:x="30" s:y="10" s:pid="out0" id="port_dec0~DP"><text x="5" y="-4" style="fill:#000; stroke:none" class="cell_dec0">DP</text></g></g><g s:type="inputExt" transform="translate(135,193)" s:width="30" s:height="20" id="cell_clk"><text x="15" y="-4" class="nodelabel cell_clk" s:attribute="ref">clk</text><s:alias val="$_inputExt_"/><path d="M0,0 L0,20 L15,20 L30,10 L15,0 Z" class="cell_clk"/><g s:x="30" s:y="10" s:pid="Y"/></g><g s:type="inputExt" transform="translate(135,258)" s:width="30" s:height="20" id="cell_init"><text x="15" y="-4" class="nodelabel cell_init" s:attribute="ref">init</text><s:alias val="$_inputExt_"/><path d="M0,0 L0,20 L15,20 L30,10 L15,0 Z" class="cell_init"/><g s:x="30" s:y="10" s:pid="Y"/></g><g s:type="inputExt" transform="translate(135,323)" s:width="30" s:height="20" id="cell_rst"><text x="15" y="-4" class="nodelabel cell_rst" s:attribute="ref">rst</text><s:alias val="$_inputExt_"/><path d="M0,0 L0,20 L15,20 L30,10 L15,0 Z" class="cell_rst"/><g s:x="30" s:y="10" s:pid="Y"/></g><g s:type="inputExt" transform="translate(135,45)" s:width="30" s:height="20" id="cell_NUM"><text x="15" y="-4" class="nodelabel cell_NUM" s:attribute="ref">NUM</text><s:alias val="$_inputExt_"/><path d="M0,0 L0,20 L15,20 L30,10 L15,0 Z" class="cell_NUM"/><g s:x="30" s:y="10" s:pid="Y"/></g><g s:type="inputExt" transform="translate(12,110.5)" s:width="30" s:height="20" id="cell_DEN"><text x="15" y="-4" class="nodelabel cell_DEN" s:attribute="ref">DEN</text><s:alias val="$_inputExt_"/><path d="M0,0 L0,20 L15,20 L30,10 L15,0 Z" class="cell_DEN"/><g s:x="30" s:y="10" s:pid="Y"/></g><g s:type="outputExt" transform="translate(513,193)" s:width="30" s:height="20" id="cell_R"><text x="15" y="-4" class="nodelabel cell_R" s:attribute="ref">R</text><s:alias val="$_outputExt_"/><path d="M30,0 L30,20 L15,20 L0,10 L15,0 Z" class="cell_R"/><g s:x="0" s:y="10" s:pid="A"/></g><g s:type="outputExt" transform="translate(513,258)" s:width="30" s:height="20" id="cell_done"><text x="15" y="-4" class="nodelabel cell_done" s:attribute="ref">done</text><s:alias val="$_outputExt_"/><path d="M30,0 L30,20 L15,20 L0,10 L15,0 Z" class="cell_done"/><g s:x="0" s:y="10" s:pid="A"/></g><g s:type="split" transform="translate(513,22)" s:width="5" s:height="40" id="cell_$split$,73,74,75,76,77,78,79,80,81,82,83,84,85,86,87,71,"><rect width="5" height="20" class="splitjoinBody" s:generic="body"/><s:alias val="$_split_"/><g s:x="0" s:y="20" s:pid="in"/><g transform="translate(4,10)" s:x="4" s:y="10" s:pid="out0"><text x="5" y="-4">15</text></g></g><line x1="275" x2="366" y1="183" y2="183" class="net_53 width_1" style="stroke-width: 1"/><line x1="366" x2="366" y1="183" y2="203" class="net_53 width_1" style="stroke-width: 1"/><line x1="366" x2="395" y1="203" y2="203" class="net_53 width_1" style="stroke-width: 1"/><line x1="165" x2="209" y1="203" y2="203" class="net_2 width_1" style="stroke-width: 1"/><line x1="209" x2="209" y1="203" y2="265.5" class="net_2 width_1" style="stroke-width: 1"/><line x1="209" x2="336" y1="265.5" y2="265.5" class="net_2 width_1" style="stroke-width: 1"/><line x1="336" x2="336" y1="265.5" y2="223" class="net_2 width_1" style="stroke-width: 1"/><circle cx="209" cy="203" r="2" style="fill:#000" class="net_2 width_1"/><line x1="336" x2="395" y1="223" y2="223" class="net_2 width_1" style="stroke-width: 1"/><line x1="165" x2="244" y1="203" y2="203" class="net_2 width_1" style="stroke-width: 1"/><line x1="165" x2="209" y1="203" y2="203" class="net_2 width_1" style="stroke-width: 1"/><line x1="209" x2="209" y1="203" y2="136.5" class="net_2 width_1" style="stroke-width: 1"/><line x1="209" x2="336" y1="136.5" y2="136.5" class="net_2 width_1" style="stroke-width: 1"/><line x1="336" x2="336" y1="136.5" y2="95" class="net_2 width_1" style="stroke-width: 1"/><line x1="336" x2="395" y1="95" y2="95" class="net_2 width_1" style="stroke-width: 1"/><line x1="275" x2="395" y1="243" y2="243" class="net_54 width_1" style="stroke-width: 1"/><line x1="275" x2="356" y1="243" y2="243" class="net_54 width_1" style="stroke-width: 1"/><line x1="356" x2="356" y1="243" y2="135" class="net_54 width_1" style="stroke-width: 1"/><circle cx="356" cy="243" r="2" style="fill:#000" class="net_54 width_1"/><line x1="356" x2="395" y1="135" y2="135" class="net_54 width_1" style="stroke-width: 1"/><line x1="42" x2="135" y1="120.5" y2="120.5" class="net_21,22,23,24,25,26,27,28,29,30,31,32,33,34,35 width_15" style="stroke-width: 2"/><line x1="518" x2="553" y1="32.5" y2="32.5" class="net_71 width_1" style="stroke-width: 1"/><line x1="553" x2="553" y1="32.5" y2="12" class="net_71 width_1" style="stroke-width: 1"/><line x1="553" x2="189" y1="12" y2="12" class="net_71 width_1" style="stroke-width: 1"/><line x1="189" x2="189" y1="12" y2="183" class="net_71 width_1" style="stroke-width: 1"/><line x1="189" x2="244" y1="183" y2="183" class="net_71 width_1" style="stroke-width: 1"/><line x1="165" x2="189" y1="268" y2="268" class="net_3 width_1" style="stroke-width: 1"/><line x1="189" x2="189" y1="268" y2="223" class="net_3 width_1" style="stroke-width: 1"/><line x1="189" x2="244" y1="223" y2="223" class="net_3 width_1" style="stroke-width: 1"/><line x1="165" x2="199" y1="333" y2="333" class="net_4 width_1" style="stroke-width: 1"/><line x1="199" x2="199" y1="333" y2="243" class="net_4 width_1" style="stroke-width: 1"/><line x1="199" x2="244" y1="243" y2="243" class="net_4 width_1" style="stroke-width: 1"/><line x1="165" x2="395" y1="55" y2="55" class="net_5,6,7,8,9,10,11,12,13,14,15,16,17,18,19,20 width_16" style="stroke-width: 2"/><line x1="166" x2="326" y1="120.5" y2="120.5" class="net_55,56,57,58,59,60,61,62,63,64,65,66,67,68,69,70 width_16" style="stroke-width: 2"/><line x1="326" x2="326" y1="120.5" y2="75" class="net_55,56,57,58,59,60,61,62,63,64,65,66,67,68,69,70 width_16" style="stroke-width: 2"/><line x1="326" x2="395" y1="75" y2="75" class="net_55,56,57,58,59,60,61,62,63,64,65,66,67,68,69,70 width_16" style="stroke-width: 2"/><line x1="275" x2="346" y1="203" y2="203" class="net_72 width_1" style="stroke-width: 1"/><line x1="346" x2="346" y1="203" y2="115" class="net_72 width_1" style="stroke-width: 1"/><line x1="346" x2="395" y1="115" y2="115" class="net_72 width_1" style="stroke-width: 1"/><line x1="426" x2="513" y1="203" y2="203" class="net_36,37,38,39,40,41,42,43,44,45,46,47,48,49,50,51 width_16" style="stroke-width: 2"/><line x1="275" x2="326" y1="223" y2="223" class="net_52 width_1" style="stroke-width: 1"/><line x1="326" x2="326" y1="223" y2="233" class="net_52 width_1" style="stroke-width: 1"/><line x1="326" x2="346" y1="233" y2="233" class="net_52 width_1" style="stroke-width: 1"/><line x1="346" x2="346" y1="233" y2="268" class="net_52 width_1" style="stroke-width: 1"/><line x1="346" x2="513" y1="268" y2="268" class="net_52 width_1" style="stroke-width: 1"/><line x1="426" x2="513.5" y1="55" y2="55" class="net_73,74,75,76,77,78,79,80,81,82,83,84,85,86,87,71 width_16" style="stroke-width: 2"/><line x1="513.5" x2="513.5" y1="55" y2="43" class="net_73,74,75,76,77,78,79,80,81,82,83,84,85,86,87,71 width_16" style="stroke-width: 2"/><rect x="78" y="115.5" width="22" height="9" class="net_21,22,23,24,25,26,27,28,29,30,31,32,33,34,35 width_15 busLabel_15" style="fill: white; stroke: none"/><text x="77" y="123.5" class="net_21,22,23,24,25,26,27,28,29,30,31,32,33,34,35 width_15 busLabel_15">/15/</text><rect x="266.5" y="50" width="22" height="9" class="net_5,6,7,8,9,10,11,12,13,14,15,16,17,18,19,20 width_16 busLabel_16" style="fill: white; stroke: none"/><text x="265.5" y="58" class="net_5,6,7,8,9,10,11,12,13,14,15,16,17,18,19,20 width_16 busLabel_16">/16/</text><rect x="266.5" y="115.5" width="22" height="9" class="net_55,56,57,58,59,60,61,62,63,64,65,66,67,68,69,70 width_16 busLabel_16" style="fill: white; stroke: none"/><text x="265.5" y="123.5" class="net_55,56,57,58,59,60,61,62,63,64,65,66,67,68,69,70 width_16 busLabel_16">/16/</text><rect x="475" y="198" width="22" height="9" class="net_36,37,38,39,40,41,42,43,44,45,46,47,48,49,50,51 width_16 busLabel_16" style="fill: white; stroke: none"/><text x="474" y="206" class="net_36,37,38,39,40,41,42,43,44,45,46,47,48,49,50,51 width_16 busLabel_16">/16/</text><rect x="475" y="50" width="22" height="9" class="net_73,74,75,76,77,78,79,80,81,82,83,84,85,86,87,71 width_16 busLabel_16" style="fill: white; stroke: none"/><text x="474" y="58" class="net_73,74,75,76,77,78,79,80,81,82,83,84,85,86,87,71 width_16 busLabel_16">/16/</text></svg>