<svg xmlns="http://www.w3.org/2000/svg" xmlns:xlink="http://www.w3.org/1999/xlink" xmlns:s="https://github.com/nturley/netlistsvg" width="829" height="467"><style>svg {
  stroke:#000;
  fill:none;
}
text {
  fill:#000;
  stroke:none;
  font-size:10px;
  font-weight: bold;
  font-family: "Courier New", monospace;
}
line {
    stroke-linecap: round;
}
.nodelabel {
  text-anchor: middle;
}
.inputPortLabel {
  text-anchor: end;
}
.splitjoinBody {
  fill:#000;
}</style><g s:type="generic" transform="translate(675,117.5)" s:width="30" s:height="40" id="cell_acc0"><text x="15" y="-4" class="nodelabel cell_acc0" s:attribute="ref">acc</text><rect width="30" height="80" s:generic="body" class="cell_acc0"/><g transform="translate(0,10)" s:x="0" s:y="10" s:pid="in0" id="port_acc0~A"><text x="-3" y="-4" class="inputPortLabel cell_acc0">A</text></g><g transform="translate(0,30)" s:x="0" s:y="10" s:pid="in0" id="port_acc0~ad"><text x="-3" y="-4" class="inputPortLabel cell_acc0">ad</text></g><g transform="translate(0,50)" s:x="0" s:y="10" s:pid="in0" id="port_acc0~clk"><text x="-3" y="-4" class="inputPortLabel cell_acc0">clk</text></g><g transform="translate(0,70)" s:x="0" s:y="10" s:pid="in0" id="port_acc0~rs"><text x="-3" y="-4" class="inputPortLabel cell_acc0">rs</text></g><g transform="translate(30,10)" s:x="30" s:y="10" s:pid="out0" id="port_acc0~r"><text x="5" y="-4" style="fill:#000; stroke:none" class="cell_acc0">r</text></g></g><g s:type="generic" transform="translate(297,308)" s:width="30" s:height="40" id="cell_comp0"><text x="15" y="-4" class="nodelabel cell_comp0" s:attribute="ref">comp</text><rect width="30" height="20" s:generic="body" class="cell_comp0"/><g transform="translate(0,10)" s:x="0" s:y="10" s:pid="in0" id="port_comp0~B"><text x="-3" y="-4" class="inputPortLabel cell_comp0">B</text></g><g transform="translate(30,10)" s:x="30" s:y="10" s:pid="out0" id="port_comp0~z"><text x="5" y="-4" style="fill:#000; stroke:none" class="cell_comp0">z</text></g></g><g s:type="generic" transform="translate(395,137.5)" s:width="30" s:height="40" id="cell_control_MULT0"><text x="15" y="-4" class="nodelabel cell_control_MULT0" s:attribute="ref">control_MULT</text><rect width="30" height="100" s:generic="body" class="cell_control_MULT0"/><g transform="translate(0,10)" s:x="0" s:y="10" s:pid="in0" id="port_control_MULT0~B"><text x="-3" y="-4" class="inputPortLabel cell_control_MULT0">B</text></g><g transform="translate(0,30)" s:x="0" s:y="10" s:pid="in0" id="port_control_MULT0~clk"><text x="-3" y="-4" class="inputPortLabel cell_control_MULT0">clk</text></g><g transform="translate(0,50)" s:x="0" s:y="10" s:pid="in0" id="port_control_MULT0~init"><text x="-3" y="-4" class="inputPortLabel cell_control_MULT0">init</text></g><g transform="translate(0,70)" s:x="0" s:y="10" s:pid="in0" id="port_control_MULT0~rst"><text x="-3" y="-4" class="inputPortLabel cell_control_MULT0">rst</text></g><g transform="translate(0,90)" s:x="0" s:y="10" s:pid="in0" id="port_control_MULT0~z"><text x="-3" y="-4" class="inputPortLabel cell_control_MULT0">z</text></g><g transform="translate(30,10)" s:x="30" s:y="10" s:pid="out0" id="port_control_MULT0~ad"><text x="5" y="-4" style="fill:#000; stroke:none" class="cell_control_MULT0">ad</text></g><g transform="translate(30,30)" s:x="30" s:y="10" s:pid="out0" id="port_control_MULT0~done"><text x="5" y="-4" style="fill:#000; stroke:none" class="cell_control_MULT0">done</text></g><g transform="translate(30,50)" s:x="30" s:y="10" s:pid="out0" id="port_control_MULT0~rs"><text x="5" y="-4" style="fill:#000; stroke:none" class="cell_control_MULT0">rs</text></g><g transform="translate(30,70)" s:x="30" s:y="10" s:pid="out0" id="port_control_MULT0~sh"><text x="5" y="-4" style="fill:#000; stroke:none" class="cell_control_MULT0">sh</text></g></g><g s:type="generic" transform="translate(532,32.5)" s:width="30" s:height="40" id="cell_rsl0"><text x="15" y="-4" class="nodelabel cell_rsl0" s:attribute="ref">rsl</text><rect width="30" height="80" s:generic="body" class="cell_rsl0"/><g transform="translate(0,10)" s:x="0" s:y="10" s:pid="in0" id="port_rsl0~clk"><text x="-3" y="-4" class="inputPortLabel cell_rsl0">clk</text></g><g transform="translate(0,30)" s:x="0" s:y="10" s:pid="in0" id="port_rsl0~i_A"><text x="-3" y="-4" class="inputPortLabel cell_rsl0">i_A</text></g><g transform="translate(0,50)" s:x="0" s:y="10" s:pid="in0" id="port_rsl0~rs"><text x="-3" y="-4" class="inputPortLabel cell_rsl0">rs</text></g><g transform="translate(0,70)" s:x="0" s:y="10" s:pid="in0" id="port_rsl0~sh"><text x="-3" y="-4" class="inputPortLabel cell_rsl0">sh</text></g><g transform="translate(30,10)" s:x="30" s:y="10" s:pid="out0" id="port_rsl0~o_A"><text x="5" y="-4" style="fill:#000; stroke:none" class="cell_rsl0">o_A</text></g></g><g s:type="generic" transform="translate(166,308)" s:width="30" s:height="40" id="cell_rsr0"><text x="15" y="-4" class="nodelabel cell_rsr0" s:attribute="ref">rsr</text><rect width="30" height="80" s:generic="body" class="cell_rsr0"/><g transform="translate(0,10)" s:x="0" s:y="10" s:pid="in0" id="port_rsr0~clk"><text x="-3" y="-4" class="inputPortLabel cell_rsr0">clk</text></g><g transform="translate(0,30)" s:x="0" s:y="10" s:pid="in0" id="port_rsr0~i_B"><text x="-3" y="-4" class="inputPortLabel cell_rsr0">i_B</text></g><g transform="translate(0,50)" s:x="0" s:y="10" s:pid="in0" id="port_rsr0~rs"><text x="-3" y="-4" class="inputPortLabel cell_rsr0">rs</text></g><g transform="translate(0,70)" s:x="0" s:y="10" s:pid="in0" id="port_rsr0~sh"><text x="-3" y="-4" class="inputPortLabel cell_rsr0">sh</text></g><g transform="translate(30,10)" s:x="30" s:y="10" s:pid="out0" id="port_rsr0~o_B"><text x="5" y="-4" style="fill:#000; stroke:none" class="cell_rsr0">o_B</text></g></g><g s:type="inputExt" transform="translate(77,22)" s:width="30" s:height="20" id="cell_clk"><text x="15" y="-4" class="nodelabel cell_clk" s:attribute="ref">clk</text><s:alias val="$_inputExt_"/><path d="M0,0 L0,20 L15,20 L30,10 L15,0 Z" class="cell_clk"/><g s:x="30" s:y="10" s:pid="Y"/></g><g s:type="inputExt" transform="translate(297,178)" s:width="30" s:height="20" id="cell_init"><text x="15" y="-4" class="nodelabel cell_init" s:attribute="ref">init</text><s:alias val="$_inputExt_"/><path d="M0,0 L0,20 L15,20 L30,10 L15,0 Z" class="cell_init"/><g s:x="30" s:y="10" s:pid="Y"/></g><g s:type="inputExt" transform="translate(297,243)" s:width="30" s:height="20" id="cell_rst"><text x="15" y="-4" class="nodelabel cell_rst" s:attribute="ref">rst</text><s:alias val="$_inputExt_"/><path d="M0,0 L0,20 L15,20 L30,10 L15,0 Z" class="cell_rst"/><g s:x="30" s:y="10" s:pid="Y"/></g><g s:type="inputExt" transform="translate(297,53)" s:width="30" s:height="20" id="cell_A"><text x="15" y="-4" class="nodelabel cell_A" s:attribute="ref">A</text><s:alias val="$_inputExt_"/><path d="M0,0 L0,20 L15,20 L30,10 L15,0 Z" class="cell_A"/><g s:x="30" s:y="10" s:pid="Y"/></g><g s:type="inputExt" transform="translate(12,328.5)" s:width="30" s:height="20" id="cell_B"><text x="15" y="-4" class="nodelabel cell_B" s:attribute="ref">B</text><s:alias val="$_inputExt_"/><path d="M0,0 L0,20 L15,20 L30,10 L15,0 Z" class="cell_B"/><g s:x="30" s:y="10" s:pid="Y"/></g><g s:type="outputExt" transform="translate(787,118)" s:width="30" s:height="20" id="cell_R"><text x="15" y="-4" class="nodelabel cell_R" s:attribute="ref">R</text><s:alias val="$_outputExt_"/><path d="M30,0 L30,20 L15,20 L0,10 L15,0 Z" class="cell_R"/><g s:x="0" s:y="10" s:pid="A"/></g><g s:type="outputExt" transform="translate(787,435)" s:width="30" s:height="20" id="cell_done"><text x="15" y="-4" class="nodelabel cell_done" s:attribute="ref">done</text><s:alias val="$_outputExt_"/><path d="M30,0 L30,20 L15,20 L0,10 L15,0 Z" class="cell_done"/><g s:x="0" s:y="10" s:pid="A"/></g><g s:type="split" transform="translate(322,108)" s:width="5" s:height="40" id="cell_$split$,104,105,106,107,108,109,110,111,112,113,114,115,116,117,118,119,"><rect width="5" height="20" class="splitjoinBody" s:generic="body"/><s:alias val="$_split_"/><g s:x="0" s:y="20" s:pid="in"/><g transform="translate(4,10)" s:x="4" s:y="10" s:pid="out0"><text x="5" y="-4">0</text></g></g><line x1="563" x2="631" y1="43" y2="43" class="net_70,71,72,73,74,75,76,77,78,79,80,81,82,83,84,85,86,87,88,89,90,91,92,93,94,95,96,97,98,99,100,101 width_32" style="stroke-width: 2"/><line x1="631" x2="631" y1="43" y2="128" class="net_70,71,72,73,74,75,76,77,78,79,80,81,82,83,84,85,86,87,88,89,90,91,92,93,94,95,96,97,98,99,100,101 width_32" style="stroke-width: 2"/><line x1="631" x2="675" y1="128" y2="128" class="net_70,71,72,73,74,75,76,77,78,79,80,81,82,83,84,85,86,87,88,89,90,91,92,93,94,95,96,97,98,99,100,101 width_32" style="stroke-width: 2"/><line x1="426" x2="675" y1="148" y2="148" class="net_102 width_1" style="stroke-width: 1"/><line x1="107" x2="117" y1="32" y2="32" class="net_2 width_1" style="stroke-width: 1"/><line x1="117" x2="117" y1="32" y2="423" class="net_2 width_1" style="stroke-width: 1"/><line x1="117" x2="631" y1="423" y2="423" class="net_2 width_1" style="stroke-width: 1"/><line x1="631" x2="631" y1="423" y2="168" class="net_2 width_1" style="stroke-width: 1"/><circle cx="117" cy="32" r="2" style="fill:#000" class="net_2 width_1"/><line x1="631" x2="675" y1="168" y2="168" class="net_2 width_1" style="stroke-width: 1"/><line x1="107" x2="236" y1="32" y2="32" class="net_2 width_1" style="stroke-width: 1"/><line x1="236" x2="236" y1="32" y2="157" class="net_2 width_1" style="stroke-width: 1"/><line x1="236" x2="345" y1="157" y2="157" class="net_2 width_1" style="stroke-width: 1"/><line x1="345" x2="345" y1="157" y2="168" class="net_2 width_1" style="stroke-width: 1"/><circle cx="236" cy="32" r="2" style="fill:#000" class="net_2 width_1"/><line x1="345" x2="395" y1="168" y2="168" class="net_2 width_1" style="stroke-width: 1"/><line x1="107" x2="483" y1="32" y2="32" class="net_2 width_1" style="stroke-width: 1"/><line x1="483" x2="483" y1="32" y2="43" class="net_2 width_1" style="stroke-width: 1"/><line x1="483" x2="532" y1="43" y2="43" class="net_2 width_1" style="stroke-width: 1"/><line x1="107" x2="117" y1="32" y2="32" class="net_2 width_1" style="stroke-width: 1"/><line x1="117" x2="117" y1="32" y2="318.5" class="net_2 width_1" style="stroke-width: 1"/><circle cx="117" cy="318.5" r="2" style="fill:#000" class="net_2 width_1"/><line x1="117" x2="166" y1="318.5" y2="318.5" class="net_2 width_1" style="stroke-width: 1"/><line x1="426" x2="493" y1="188" y2="188" class="net_103 width_1" style="stroke-width: 1"/><line x1="493" x2="493" y1="188" y2="434" class="net_103 width_1" style="stroke-width: 1"/><line x1="493" x2="641" y1="434" y2="434" class="net_103 width_1" style="stroke-width: 1"/><line x1="641" x2="641" y1="434" y2="188" class="net_103 width_1" style="stroke-width: 1"/><circle cx="493" cy="188" r="2" style="fill:#000" class="net_103 width_1"/><line x1="641" x2="675" y1="188" y2="188" class="net_103 width_1" style="stroke-width: 1"/><line x1="426" x2="493" y1="188" y2="188" class="net_103 width_1" style="stroke-width: 1"/><line x1="493" x2="493" y1="188" y2="83" class="net_103 width_1" style="stroke-width: 1"/><line x1="493" x2="532" y1="83" y2="83" class="net_103 width_1" style="stroke-width: 1"/><line x1="426" x2="493" y1="188" y2="188" class="net_103 width_1" style="stroke-width: 1"/><line x1="493" x2="493" y1="188" y2="412" class="net_103 width_1" style="stroke-width: 1"/><line x1="493" x2="127" y1="412" y2="412" class="net_103 width_1" style="stroke-width: 1"/><line x1="127" x2="127" y1="412" y2="358.5" class="net_103 width_1" style="stroke-width: 1"/><circle cx="493" cy="412" r="2" style="fill:#000" class="net_103 width_1"/><line x1="127" x2="166" y1="358.5" y2="358.5" class="net_103 width_1" style="stroke-width: 1"/><line x1="197" x2="297" y1="318.5" y2="318.5" class="net_104,105,106,107,108,109,110,111,112,113,114,115,116,117,118,119 width_16" style="stroke-width: 2"/><line x1="197" x2="226" y1="318.5" y2="318.5" class="net_104,105,106,107,108,109,110,111,112,113,114,115,116,117,118,119 width_16" style="stroke-width: 2"/><line x1="226" x2="226" y1="318.5" y2="141" class="net_104,105,106,107,108,109,110,111,112,113,114,115,116,117,118,119 width_16" style="stroke-width: 2"/><line x1="226" x2="322.5" y1="141" y2="141" class="net_104,105,106,107,108,109,110,111,112,113,114,115,116,117,118,119 width_16" style="stroke-width: 2"/><circle cx="226" cy="318.5" r="3" style="fill:#000" class="net_104,105,106,107,108,109,110,111,112,113,114,115,116,117,118,119 width_16"/><line x1="322.5" x2="322.5" y1="141" y2="129" class="net_104,105,106,107,108,109,110,111,112,113,114,115,116,117,118,119 width_16" style="stroke-width: 2"/><line x1="327" x2="345" y1="118.5" y2="118.5" class="net_104 width_1" style="stroke-width: 1"/><line x1="345" x2="345" y1="118.5" y2="148" class="net_104 width_1" style="stroke-width: 1"/><line x1="345" x2="395" y1="148" y2="148" class="net_104 width_1" style="stroke-width: 1"/><line x1="327" x2="395" y1="188" y2="188" class="net_3 width_1" style="stroke-width: 1"/><line x1="327" x2="345" y1="253" y2="253" class="net_4 width_1" style="stroke-width: 1"/><line x1="345" x2="345" y1="253" y2="208" class="net_4 width_1" style="stroke-width: 1"/><line x1="345" x2="395" y1="208" y2="208" class="net_4 width_1" style="stroke-width: 1"/><line x1="328" x2="355" y1="318.5" y2="318.5" class="net_120 width_1" style="stroke-width: 1"/><line x1="355" x2="355" y1="318.5" y2="228" class="net_120 width_1" style="stroke-width: 1"/><line x1="355" x2="395" y1="228" y2="228" class="net_120 width_1" style="stroke-width: 1"/><line x1="327" x2="532" y1="63" y2="63" class="net_5,6,7,8,9,10,11,12,13,14,15,16,17,18,19,20 width_16" style="stroke-width: 2"/><line x1="426" x2="483" y1="208" y2="208" class="net_121 width_1" style="stroke-width: 1"/><line x1="483" x2="483" y1="208" y2="103" class="net_121 width_1" style="stroke-width: 1"/><circle cx="483" cy="208" r="2" style="fill:#000" class="net_121 width_1"/><line x1="483" x2="532" y1="103" y2="103" class="net_121 width_1" style="stroke-width: 1"/><line x1="426" x2="483" y1="208" y2="208" class="net_121 width_1" style="stroke-width: 1"/><line x1="483" x2="483" y1="208" y2="401" class="net_121 width_1" style="stroke-width: 1"/><line x1="483" x2="137" y1="401" y2="401" class="net_121 width_1" style="stroke-width: 1"/><line x1="137" x2="137" y1="401" y2="378.5" class="net_121 width_1" style="stroke-width: 1"/><line x1="137" x2="166" y1="378.5" y2="378.5" class="net_121 width_1" style="stroke-width: 1"/><line x1="42" x2="166" y1="338.5" y2="338.5" class="net_21,22,23,24,25,26,27,28,29,30,31,32,33,34,35,36 width_16" style="stroke-width: 2"/><line x1="706" x2="787" y1="128" y2="128" class="net_37,38,39,40,41,42,43,44,45,46,47,48,49,50,51,52,53,54,55,56,57,58,59,60,61,62,63,64,65,66,67,68 width_32" style="stroke-width: 2"/><line x1="426" x2="503" y1="168" y2="168" class="net_69 width_1" style="stroke-width: 1"/><line x1="503" x2="503" y1="168" y2="445" class="net_69 width_1" style="stroke-width: 1"/><line x1="503" x2="787" y1="445" y2="445" class="net_69 width_1" style="stroke-width: 1"/><rect x="618" y="38" width="22" height="9" class="net_70,71,72,73,74,75,76,77,78,79,80,81,82,83,84,85,86,87,88,89,90,91,92,93,94,95,96,97,98,99,100,101 width_32 busLabel_32" style="fill: white; stroke: none"/><text x="617" y="46" class="net_70,71,72,73,74,75,76,77,78,79,80,81,82,83,84,85,86,87,88,89,90,91,92,93,94,95,96,97,98,99,100,101 width_32 busLabel_32">/32/</text><rect x="252" y="136" width="22" height="9" class="net_104,105,106,107,108,109,110,111,112,113,114,115,116,117,118,119 width_16 busLabel_16" style="fill: white; stroke: none"/><text x="251" y="144" class="net_104,105,106,107,108,109,110,111,112,113,114,115,116,117,118,119 width_16 busLabel_16">/16/</text><rect x="252" y="136" width="22" height="9" class="net_104,105,106,107,108,109,110,111,112,113,114,115,116,117,118,119 width_16 busLabel_16" style="fill: white; stroke: none"/><text x="251" y="144" class="net_104,105,106,107,108,109,110,111,112,113,114,115,116,117,118,119 width_16 busLabel_16">/16/</text><rect x="420.5" y="58" width="22" height="9" class="net_5,6,7,8,9,10,11,12,13,14,15,16,17,18,19,20 width_16 busLabel_16" style="fill: white; stroke: none"/><text x="419.5" y="66" class="net_5,6,7,8,9,10,11,12,13,14,15,16,17,18,19,20 width_16 busLabel_16">/16/</text><rect x="91" y="333.5" width="22" height="9" class="net_21,22,23,24,25,26,27,28,29,30,31,32,33,34,35,36 width_16 busLabel_16" style="fill: white; stroke: none"/><text x="90" y="341.5" class="net_21,22,23,24,25,26,27,28,29,30,31,32,33,34,35,36 width_16 busLabel_16">/16/</text><rect x="749" y="123" width="22" height="9" class="net_37,38,39,40,41,42,43,44,45,46,47,48,49,50,51,52,53,54,55,56,57,58,59,60,61,62,63,64,65,66,67,68 width_32 busLabel_32" style="fill: white; stroke: none"/><text x="748" y="131" class="net_37,38,39,40,41,42,43,44,45,46,47,48,49,50,51,52,53,54,55,56,57,58,59,60,61,62,63,64,65,66,67,68 width_32 busLabel_32">/32/</text></svg>