<svg xmlns="http://www.w3.org/2000/svg" xmlns:xlink="http://www.w3.org/1999/xlink" xmlns:s="https://github.com/nturley/netlistsvg" width="814" height="1002.5"><style>svg {
  stroke:#000;
  fill:none;
}
text {
  fill:#000;
  stroke:none;
  font-size:10px;
  font-weight: bold;
  font-family: "Courier New", monospace;
}
line {
    stroke-linecap: round;
}
.nodelabel {
  text-anchor: middle;
}
.inputPortLabel {
  text-anchor: end;
}
.splitjoinBody {
  fill:#000;
}</style><g s:type="generic" transform="translate(623,37)" s:width="30" s:height="40" id="cell_cct0"><text x="15" y="-4" class="nodelabel cell_cct0" s:attribute="ref">cct</text><rect width="30" height="160" s:generic="body" class="cell_cct0"/><g transform="translate(0,10)" s:x="0" s:y="10" s:pid="in0" id="port_cct0~B"><text x="-3" y="-4" class="inputPortLabel cell_cct0">B</text></g><g transform="translate(0,30)" s:x="0" s:y="10" s:pid="in0" id="port_cct0~C"><text x="-3" y="-4" class="inputPortLabel cell_cct0">C</text></g><g transform="translate(0,50)" s:x="0" s:y="10" s:pid="in0" id="port_cct0~D"><text x="-3" y="-4" class="inputPortLabel cell_cct0">D</text></g><g transform="translate(0,70)" s:x="0" s:y="10" s:pid="in0" id="port_cct0~U"><text x="-3" y="-4" class="inputPortLabel cell_cct0">U</text></g><g transform="translate(0,90)" s:x="0" s:y="10" s:pid="in0" id="port_cct0~cct"><text x="-3" y="-4" class="inputPortLabel cell_cct0">cct</text></g><g transform="translate(0,110)" s:x="0" s:y="10" s:pid="in0" id="port_cct0~clk"><text x="-3" y="-4" class="inputPortLabel cell_cct0">clk</text></g><g transform="translate(0,130)" s:x="0" s:y="10" s:pid="in0" id="port_cct0~rs"><text x="-3" y="-4" class="inputPortLabel cell_cct0">rs</text></g><g transform="translate(0,150)" s:x="0" s:y="10" s:pid="in0" id="port_cct0~sh"><text x="-3" y="-4" class="inputPortLabel cell_cct0">sh</text></g><g transform="translate(30,10)" s:x="30" s:y="10" s:pid="out0" id="port_cct0~R"><text x="5" y="-4" style="fill:#000; stroke:none" class="cell_cct0">R</text></g></g><g s:type="generic" transform="translate(467,205)" s:width="30" s:height="40" id="cell_comp0"><text x="15" y="-4" class="nodelabel cell_comp0" s:attribute="ref">comp</text><rect width="30" height="140" s:generic="body" class="cell_comp0"/><g transform="translate(0,10)" s:x="0" s:y="10" s:pid="in0" id="port_comp0~BCD"><text x="-3" y="-4" class="inputPortLabel cell_comp0">BCD</text></g><g transform="translate(0,30)" s:x="0" s:y="10" s:pid="in0" id="port_comp0~R"><text x="-3" y="-4" class="inputPortLabel cell_comp0">R</text></g><g transform="translate(0,50)" s:x="0" s:y="10" s:pid="in0" id="port_comp0~asg"><text x="-3" y="-4" class="inputPortLabel cell_comp0">asg</text></g><g transform="translate(0,70)" s:x="0" s:y="10" s:pid="in0" id="port_comp0~ch"><text x="-3" y="-4" class="inputPortLabel cell_comp0">ch</text></g><g transform="translate(0,90)" s:x="0" s:y="10" s:pid="in0" id="port_comp0~clk"><text x="-3" y="-4" class="inputPortLabel cell_comp0">clk</text></g><g transform="translate(0,110)" s:x="0" s:y="10" s:pid="in0" id="port_comp0~crc"><text x="-3" y="-4" class="inputPortLabel cell_comp0">crc</text></g><g transform="translate(0,130)" s:x="0" s:y="10" s:pid="in0" id="port_comp0~rs"><text x="-3" y="-4" class="inputPortLabel cell_comp0">rs</text></g><g transform="translate(30,10)" s:x="30" s:y="10" s:pid="out0" id="port_comp0~o"><text x="5" y="-4" style="fill:#000; stroke:none" class="cell_comp0">o</text></g></g><g s:type="generic" transform="translate(467,393)" s:width="30" s:height="40" id="cell_comp1"><text x="15" y="-4" class="nodelabel cell_comp1" s:attribute="ref">comp</text><rect width="30" height="140" s:generic="body" class="cell_comp1"/><g transform="translate(0,10)" s:x="0" s:y="10" s:pid="in0" id="port_comp1~BCD"><text x="-3" y="-4" class="inputPortLabel cell_comp1">BCD</text></g><g transform="translate(0,30)" s:x="0" s:y="10" s:pid="in0" id="port_comp1~R"><text x="-3" y="-4" class="inputPortLabel cell_comp1">R</text></g><g transform="translate(0,50)" s:x="0" s:y="10" s:pid="in0" id="port_comp1~asg"><text x="-3" y="-4" class="inputPortLabel cell_comp1">asg</text></g><g transform="translate(0,70)" s:x="0" s:y="10" s:pid="in0" id="port_comp1~ch"><text x="-3" y="-4" class="inputPortLabel cell_comp1">ch</text></g><g transform="translate(0,90)" s:x="0" s:y="10" s:pid="in0" id="port_comp1~clk"><text x="-3" y="-4" class="inputPortLabel cell_comp1">clk</text></g><g transform="translate(0,110)" s:x="0" s:y="10" s:pid="in0" id="port_comp1~crc"><text x="-3" y="-4" class="inputPortLabel cell_comp1">crc</text></g><g transform="translate(0,130)" s:x="0" s:y="10" s:pid="in0" id="port_comp1~rs"><text x="-3" y="-4" class="inputPortLabel cell_comp1">rs</text></g><g transform="translate(30,10)" s:x="30" s:y="10" s:pid="out0" id="port_comp1~o"><text x="5" y="-4" style="fill:#000; stroke:none" class="cell_comp1">o</text></g></g><g s:type="generic" transform="translate(467,567)" s:width="30" s:height="40" id="cell_comp2"><text x="15" y="-4" class="nodelabel cell_comp2" s:attribute="ref">comp</text><rect width="30" height="140" s:generic="body" class="cell_comp2"/><g transform="translate(0,10)" s:x="0" s:y="10" s:pid="in0" id="port_comp2~BCD"><text x="-3" y="-4" class="inputPortLabel cell_comp2">BCD</text></g><g transform="translate(0,30)" s:x="0" s:y="10" s:pid="in0" id="port_comp2~R"><text x="-3" y="-4" class="inputPortLabel cell_comp2">R</text></g><g transform="translate(0,50)" s:x="0" s:y="10" s:pid="in0" id="port_comp2~asg"><text x="-3" y="-4" class="inputPortLabel cell_comp2">asg</text></g><g transform="translate(0,70)" s:x="0" s:y="10" s:pid="in0" id="port_comp2~ch"><text x="-3" y="-4" class="inputPortLabel cell_comp2">ch</text></g><g transform="translate(0,90)" s:x="0" s:y="10" s:pid="in0" id="port_comp2~clk"><text x="-3" y="-4" class="inputPortLabel cell_comp2">clk</text></g><g transform="translate(0,110)" s:x="0" s:y="10" s:pid="in0" id="port_comp2~crc"><text x="-3" y="-4" class="inputPortLabel cell_comp2">crc</text></g><g transform="translate(0,130)" s:x="0" s:y="10" s:pid="in0" id="port_comp2~rs"><text x="-3" y="-4" class="inputPortLabel cell_comp2">rs</text></g><g transform="translate(30,10)" s:x="30" s:y="10" s:pid="out0" id="port_comp2~o"><text x="5" y="-4" style="fill:#000; stroke:none" class="cell_comp2">o</text></g></g><g s:type="generic" transform="translate(467,37)" s:width="30" s:height="40" id="cell_compb0"><text x="15" y="-4" class="nodelabel cell_compb0" s:attribute="ref">compb</text><rect width="30" height="120" s:generic="body" class="cell_compb0"/><g transform="translate(0,10)" s:x="0" s:y="10" s:pid="in0" id="port_compb0~B"><text x="-3" y="-4" class="inputPortLabel cell_compb0">B</text></g><g transform="translate(0,30)" s:x="0" s:y="10" s:pid="in0" id="port_compb0~R"><text x="-3" y="-4" class="inputPortLabel cell_compb0">R</text></g><g transform="translate(0,50)" s:x="0" s:y="10" s:pid="in0" id="port_compb0~asg"><text x="-3" y="-4" class="inputPortLabel cell_compb0">asg</text></g><g transform="translate(0,70)" s:x="0" s:y="10" s:pid="in0" id="port_compb0~clk"><text x="-3" y="-4" class="inputPortLabel cell_compb0">clk</text></g><g transform="translate(0,90)" s:x="0" s:y="10" s:pid="in0" id="port_compb0~crc"><text x="-3" y="-4" class="inputPortLabel cell_compb0">crc</text></g><g transform="translate(0,110)" s:x="0" s:y="10" s:pid="in0" id="port_compb0~rs"><text x="-3" y="-4" class="inputPortLabel cell_compb0">rs</text></g><g transform="translate(30,10)" s:x="30" s:y="10" s:pid="out0" id="port_compb0~o"><text x="5" y="-4" style="fill:#000; stroke:none" class="cell_compb0">o</text></g></g><g s:type="generic" transform="translate(754,851.5)" s:width="30" s:height="40" id="cell_cont0"><text x="15" y="-4" class="nodelabel cell_cont0" s:attribute="ref">cont</text><rect width="30" height="60" s:generic="body" class="cell_cont0"/><g transform="translate(0,10)" s:x="0" s:y="10" s:pid="in0" id="port_cont0~asg"><text x="-3" y="-4" class="inputPortLabel cell_cont0">asg</text></g><g transform="translate(0,30)" s:x="0" s:y="10" s:pid="in0" id="port_cont0~clk"><text x="-3" y="-4" class="inputPortLabel cell_cont0">clk</text></g><g transform="translate(0,50)" s:x="0" s:y="10" s:pid="in0" id="port_cont0~rs"><text x="-3" y="-4" class="inputPortLabel cell_cont0">rs</text></g><g transform="translate(30,10)" s:x="30" s:y="10" s:pid="out0" id="port_cont0~h"><text x="5" y="-4" style="fill:#000; stroke:none" class="cell_cont0">h</text></g></g><g s:type="generic" transform="translate(262,628.5)" s:width="30" s:height="40" id="cell_control_BCD_BIN0"><text x="15" y="-4" class="nodelabel cell_control_BCD_BIN0" s:attribute="ref">control_BCD_BIN</text><rect width="30" height="140" s:generic="body" class="cell_control_BCD_BIN0"/><g transform="translate(0,10)" s:x="0" s:y="10" s:pid="in0" id="port_control_BCD_BIN0~clk"><text x="-3" y="-4" class="inputPortLabel cell_control_BCD_BIN0">clk</text></g><g transform="translate(0,30)" s:x="0" s:y="10" s:pid="in0" id="port_control_BCD_BIN0~h"><text x="-3" y="-4" class="inputPortLabel cell_control_BCD_BIN0">h</text></g><g transform="translate(0,50)" s:x="0" s:y="10" s:pid="in0" id="port_control_BCD_BIN0~init"><text x="-3" y="-4" class="inputPortLabel cell_control_BCD_BIN0">init</text></g><g transform="translate(0,70)" s:x="0" s:y="10" s:pid="in0" id="port_control_BCD_BIN0~rst"><text x="-3" y="-4" class="inputPortLabel cell_control_BCD_BIN0">rst</text></g><g transform="translate(30,10)" s:x="30" s:y="10" s:pid="out0" id="port_control_BCD_BIN0~asg"><text x="5" y="-4" style="fill:#000; stroke:none" class="cell_control_BCD_BIN0">asg</text></g><g transform="translate(30,30)" s:x="30" s:y="10" s:pid="out0" id="port_control_BCD_BIN0~cct"><text x="5" y="-4" style="fill:#000; stroke:none" class="cell_control_BCD_BIN0">cct</text></g><g transform="translate(30,50)" s:x="30" s:y="10" s:pid="out0" id="port_control_BCD_BIN0~ch"><text x="5" y="-4" style="fill:#000; stroke:none" class="cell_control_BCD_BIN0">ch</text></g><g transform="translate(30,70)" s:x="30" s:y="10" s:pid="out0" id="port_control_BCD_BIN0~crc"><text x="5" y="-4" style="fill:#000; stroke:none" class="cell_control_BCD_BIN0">crc</text></g><g transform="translate(30,90)" s:x="30" s:y="10" s:pid="out0" id="port_control_BCD_BIN0~done"><text x="5" y="-4" style="fill:#000; stroke:none" class="cell_control_BCD_BIN0">done</text></g><g transform="translate(30,110)" s:x="30" s:y="10" s:pid="out0" id="port_control_BCD_BIN0~rs"><text x="5" y="-4" style="fill:#000; stroke:none" class="cell_control_BCD_BIN0">rs</text></g><g transform="translate(30,130)" s:x="30" s:y="10" s:pid="out0" id="port_control_BCD_BIN0~sh"><text x="5" y="-4" style="fill:#000; stroke:none" class="cell_control_BCD_BIN0">sh</text></g></g><g s:type="inputExt" transform="translate(147,629)" s:width="30" s:height="20" id="cell_clk"><text x="15" y="-4" class="nodelabel cell_clk" s:attribute="ref">clk</text><s:alias val="$_inputExt_"/><path d="M0,0 L0,20 L15,20 L30,10 L15,0 Z" class="cell_clk"/><g s:x="30" s:y="10" s:pid="Y"/></g><g s:type="inputExt" transform="translate(147,694)" s:width="30" s:height="20" id="cell_init"><text x="15" y="-4" class="nodelabel cell_init" s:attribute="ref">init</text><s:alias val="$_inputExt_"/><path d="M0,0 L0,20 L15,20 L30,10 L15,0 Z" class="cell_init"/><g s:x="30" s:y="10" s:pid="Y"/></g><g s:type="inputExt" transform="translate(147,759)" s:width="30" s:height="20" id="cell_rst"><text x="15" y="-4" class="nodelabel cell_rst" s:attribute="ref">rst</text><s:alias val="$_inputExt_"/><path d="M0,0 L0,20 L15,20 L30,10 L15,0 Z" class="cell_rst"/><g s:x="30" s:y="10" s:pid="Y"/></g><g s:type="inputExt" transform="translate(22,475)" s:width="30" s:height="20" id="cell_BCD"><text x="15" y="-4" class="nodelabel cell_BCD" s:attribute="ref">BCD</text><s:alias val="$_inputExt_"/><path d="M0,0 L0,20 L15,20 L30,10 L15,0 Z" class="cell_BCD"/><g s:x="30" s:y="10" s:pid="Y"/></g><g s:type="outputExt" transform="translate(754,37.5)" s:width="30" s:height="20" id="cell_R"><text x="15" y="-4" class="nodelabel cell_R" s:attribute="ref">R</text><s:alias val="$_outputExt_"/><path d="M30,0 L30,20 L15,20 L0,10 L15,0 Z" class="cell_R"/><g s:x="0" s:y="10" s:pid="A"/></g><g s:type="outputExt" transform="translate(754,959.5)" s:width="30" s:height="20" id="cell_done"><text x="15" y="-4" class="nodelabel cell_done" s:attribute="ref">done</text><s:alias val="$_outputExt_"/><path d="M30,0 L30,20 L15,20 L0,10 L15,0 Z" class="cell_done"/><g s:x="0" s:y="10" s:pid="A"/></g><g s:type="constant" transform="translate(22,111)" s:width="30" s:height="20" id="cell_0000"><text x="15" y="-4" class="nodelabel cell_0000" s:attribute="ref">0x0</text><s:alias val="$_constant_"/><rect width="30" height="20" class="cell_0000"/><g s:x="31" s:y="10" s:pid="Y"/></g><g s:type="join" transform="translate(166,90.5)" s:width="4" s:height="40" id="cell_$join$,17,18,19,20,21,22,23,24,65,66,67,68,"><rect width="5" height="40" class="splitjoinBody" s:generic="body"/><s:alias val="$_join_"/><g s:x="5" s:y="20" s:pid="out"/><g transform="translate(0,10)" s:x="0" s:y="10" s:pid="in0"><text x="-3" y="-4" class="inputPortLabel">0:7</text></g><g transform="translate(0,30)" s:x="0" s:y="10" s:pid="in0"><text x="-3" y="-4" class="inputPortLabel">8:11</text></g></g><g s:type="split" transform="translate(147,464.5)" s:width="5" s:height="40" id="cell_$split$,5,6,7,8,9,10,11,12,13,14,15,16,"><rect width="5" height="60" class="splitjoinBody" s:generic="body"/><s:alias val="$_split_"/><g s:x="0" s:y="20" s:pid="in"/><g transform="translate(4,10)" s:x="4" s:y="10" s:pid="out0"><text x="5" y="-4">8:11</text></g><g transform="translate(4,30)" s:x="4" s:y="10" s:pid="out0"><text x="5" y="-4">4:7</text></g><g transform="translate(4,50)" s:x="4" s:y="10" s:pid="out0"><text x="5" y="-4">0:3</text></g></g><g s:type="split" transform="translate(22,530)" s:width="5" s:height="40" id="cell_$split$,17,18,19,20,21,22,23,24,25,26,27,28,29,30,31,32,33,34,35,36,"><rect width="5" height="80" class="splitjoinBody" s:generic="body"/><s:alias val="$_split_"/><g s:x="0" s:y="20" s:pid="in"/><g transform="translate(4,10)" s:x="4" s:y="10" s:pid="out0"><text x="5" y="-4">16:19</text></g><g transform="translate(4,30)" s:x="4" s:y="10" s:pid="out0"><text x="5" y="-4">12:15</text></g><g transform="translate(4,50)" s:x="4" s:y="10" s:pid="out0"><text x="5" y="-4">8:11</text></g><g transform="translate(4,70)" s:x="4" s:y="10" s:pid="out0"><text x="5" y="-4">0:7</text></g></g><line x1="498" x2="623" y1="47.5" y2="47.5" class="net_38,39,40,41,42,43,44,45 width_8" style="stroke-width: 2"/><line x1="498" x2="554" y1="215.5" y2="215.5" class="net_46,47,48,49 width_4" style="stroke-width: 2"/><line x1="554" x2="554" y1="215.5" y2="67.5" class="net_46,47,48,49 width_4" style="stroke-width: 2"/><circle cx="554" cy="215.5" r="3" style="fill:#000" class="net_46,47,48,49 width_4"/><line x1="554" x2="623" y1="67.5" y2="67.5" class="net_46,47,48,49 width_4" style="stroke-width: 2"/><line x1="498" x2="554" y1="403.5" y2="403.5" class="net_46,47,48,49 width_4" style="stroke-width: 2"/><line x1="554" x2="554" y1="403.5" y2="67.5" class="net_46,47,48,49 width_4" style="stroke-width: 2"/><circle cx="554" cy="403.5" r="3" style="fill:#000" class="net_46,47,48,49 width_4"/><line x1="554" x2="623" y1="67.5" y2="67.5" class="net_46,47,48,49 width_4" style="stroke-width: 2"/><line x1="498" x2="515" y1="577.5" y2="577.5" class="net_46,47,48,49 width_4" style="stroke-width: 2"/><line x1="515" x2="515" y1="577.5" y2="423.5" class="net_46,47,48,49 width_4" style="stroke-width: 2"/><line x1="515" x2="554" y1="423.5" y2="423.5" class="net_46,47,48,49 width_4" style="stroke-width: 2"/><line x1="554" x2="554" y1="423.5" y2="67.5" class="net_46,47,48,49 width_4" style="stroke-width: 2"/><line x1="554" x2="623" y1="67.5" y2="67.5" class="net_46,47,48,49 width_4" style="stroke-width: 2"/><line x1="293" x2="368" y1="659" y2="659" class="net_58 width_1" style="stroke-width: 1"/><line x1="368" x2="368" y1="659" y2="546" class="net_58 width_1" style="stroke-width: 1"/><line x1="368" x2="564" y1="546" y2="546" class="net_58 width_1" style="stroke-width: 1"/><line x1="564" x2="564" y1="546" y2="127.5" class="net_58 width_1" style="stroke-width: 1"/><line x1="564" x2="623" y1="127.5" y2="127.5" class="net_58 width_1" style="stroke-width: 1"/><line x1="177" x2="217" y1="639" y2="639" class="net_2 width_1" style="stroke-width: 1"/><line x1="217" x2="217" y1="639" y2="829" class="net_2 width_1" style="stroke-width: 1"/><line x1="217" x2="574" y1="829" y2="829" class="net_2 width_1" style="stroke-width: 1"/><line x1="574" x2="574" y1="829" y2="147.5" class="net_2 width_1" style="stroke-width: 1"/><circle cx="217" cy="639" r="2" style="fill:#000" class="net_2 width_1"/><line x1="574" x2="623" y1="147.5" y2="147.5" class="net_2 width_1" style="stroke-width: 1"/><line x1="177" x2="217" y1="639" y2="639" class="net_2 width_1" style="stroke-width: 1"/><line x1="217" x2="217" y1="639" y2="295.5" class="net_2 width_1" style="stroke-width: 1"/><circle cx="217" cy="295.5" r="2" style="fill:#000" class="net_2 width_1"/><line x1="217" x2="467" y1="295.5" y2="295.5" class="net_2 width_1" style="stroke-width: 1"/><line x1="177" x2="217" y1="639" y2="639" class="net_2 width_1" style="stroke-width: 1"/><line x1="217" x2="217" y1="639" y2="483.5" class="net_2 width_1" style="stroke-width: 1"/><circle cx="217" cy="483.5" r="2" style="fill:#000" class="net_2 width_1"/><line x1="217" x2="467" y1="483.5" y2="483.5" class="net_2 width_1" style="stroke-width: 1"/><line x1="177" x2="217" y1="639" y2="639" class="net_2 width_1" style="stroke-width: 1"/><line x1="217" x2="217" y1="639" y2="829" class="net_2 width_1" style="stroke-width: 1"/><line x1="217" x2="438" y1="829" y2="829" class="net_2 width_1" style="stroke-width: 1"/><line x1="438" x2="438" y1="829" y2="657.5" class="net_2 width_1" style="stroke-width: 1"/><circle cx="438" cy="829" r="2" style="fill:#000" class="net_2 width_1"/><line x1="438" x2="467" y1="657.5" y2="657.5" class="net_2 width_1" style="stroke-width: 1"/><line x1="177" x2="217" y1="639" y2="639" class="net_2 width_1" style="stroke-width: 1"/><line x1="217" x2="217" y1="639" y2="127" class="net_2 width_1" style="stroke-width: 1"/><line x1="217" x2="398" y1="127" y2="127" class="net_2 width_1" style="stroke-width: 1"/><line x1="398" x2="398" y1="127" y2="107.5" class="net_2 width_1" style="stroke-width: 1"/><line x1="398" x2="467" y1="107.5" y2="107.5" class="net_2 width_1" style="stroke-width: 1"/><line x1="177" x2="217" y1="639" y2="639" class="net_2 width_1" style="stroke-width: 1"/><line x1="217" x2="217" y1="639" y2="829" class="net_2 width_1" style="stroke-width: 1"/><line x1="217" x2="438" y1="829" y2="829" class="net_2 width_1" style="stroke-width: 1"/><line x1="438" x2="438" y1="829" y2="882" class="net_2 width_1" style="stroke-width: 1"/><line x1="438" x2="754" y1="882" y2="882" class="net_2 width_1" style="stroke-width: 1"/><line x1="177" x2="262" y1="639" y2="639" class="net_2 width_1" style="stroke-width: 1"/><line x1="293" x2="428" y1="739" y2="739" class="net_59 width_1" style="stroke-width: 1"/><line x1="428" x2="428" y1="739" y2="840" class="net_59 width_1" style="stroke-width: 1"/><line x1="428" x2="584" y1="840" y2="840" class="net_59 width_1" style="stroke-width: 1"/><line x1="584" x2="584" y1="840" y2="167.5" class="net_59 width_1" style="stroke-width: 1"/><circle cx="428" cy="739" r="2" style="fill:#000" class="net_59 width_1"/><circle cx="428" cy="840" r="2" style="fill:#000" class="net_59 width_1"/><line x1="584" x2="623" y1="167.5" y2="167.5" class="net_59 width_1" style="stroke-width: 1"/><line x1="293" x2="428" y1="739" y2="739" class="net_59 width_1" style="stroke-width: 1"/><line x1="428" x2="428" y1="739" y2="335.5" class="net_59 width_1" style="stroke-width: 1"/><circle cx="428" cy="335.5" r="2" style="fill:#000" class="net_59 width_1"/><line x1="428" x2="467" y1="335.5" y2="335.5" class="net_59 width_1" style="stroke-width: 1"/><line x1="293" x2="428" y1="739" y2="739" class="net_59 width_1" style="stroke-width: 1"/><line x1="428" x2="428" y1="739" y2="523.5" class="net_59 width_1" style="stroke-width: 1"/><circle cx="428" cy="523.5" r="2" style="fill:#000" class="net_59 width_1"/><line x1="428" x2="467" y1="523.5" y2="523.5" class="net_59 width_1" style="stroke-width: 1"/><line x1="293" x2="428" y1="739" y2="739" class="net_59 width_1" style="stroke-width: 1"/><line x1="428" x2="428" y1="739" y2="697.5" class="net_59 width_1" style="stroke-width: 1"/><circle cx="428" cy="697.5" r="2" style="fill:#000" class="net_59 width_1"/><line x1="428" x2="467" y1="697.5" y2="697.5" class="net_59 width_1" style="stroke-width: 1"/><line x1="293" x2="428" y1="739" y2="739" class="net_59 width_1" style="stroke-width: 1"/><line x1="428" x2="428" y1="739" y2="147.5" class="net_59 width_1" style="stroke-width: 1"/><line x1="428" x2="467" y1="147.5" y2="147.5" class="net_59 width_1" style="stroke-width: 1"/><line x1="293" x2="428" y1="739" y2="739" class="net_59 width_1" style="stroke-width: 1"/><line x1="428" x2="428" y1="739" y2="902" class="net_59 width_1" style="stroke-width: 1"/><line x1="428" x2="754" y1="902" y2="902" class="net_59 width_1" style="stroke-width: 1"/><line x1="293" x2="378" y1="759" y2="759" class="net_60 width_1" style="stroke-width: 1"/><line x1="378" x2="378" y1="759" y2="851" class="net_60 width_1" style="stroke-width: 1"/><line x1="378" x2="594" y1="851" y2="851" class="net_60 width_1" style="stroke-width: 1"/><line x1="594" x2="594" y1="851" y2="187.5" class="net_60 width_1" style="stroke-width: 1"/><line x1="594" x2="623" y1="187.5" y2="187.5" class="net_60 width_1" style="stroke-width: 1"/><line x1="152" x2="187" y1="475" y2="475" class="net_13,14,15,16 width_4" style="stroke-width: 2"/><line x1="187" x2="187" y1="475" y2="215.5" class="net_13,14,15,16 width_4" style="stroke-width: 2"/><line x1="187" x2="467" y1="215.5" y2="215.5" class="net_13,14,15,16 width_4" style="stroke-width: 2"/><line x1="27" x2="78" y1="540.5" y2="540.5" class="net_33,34,35,36 width_4" style="stroke-width: 2"/><line x1="78" x2="78" y1="540.5" y2="235.5" class="net_33,34,35,36 width_4" style="stroke-width: 2"/><line x1="78" x2="467" y1="235.5" y2="235.5" class="net_33,34,35,36 width_4" style="stroke-width: 2"/><line x1="293" x2="388" y1="639" y2="639" class="net_61 width_1" style="stroke-width: 1"/><line x1="388" x2="388" y1="639" y2="255.5" class="net_61 width_1" style="stroke-width: 1"/><circle cx="388" cy="639" r="2" style="fill:#000" class="net_61 width_1"/><circle cx="388" cy="255.5" r="2" style="fill:#000" class="net_61 width_1"/><line x1="388" x2="467" y1="255.5" y2="255.5" class="net_61 width_1" style="stroke-width: 1"/><line x1="293" x2="388" y1="639" y2="639" class="net_61 width_1" style="stroke-width: 1"/><line x1="388" x2="388" y1="639" y2="443.5" class="net_61 width_1" style="stroke-width: 1"/><circle cx="388" cy="443.5" r="2" style="fill:#000" class="net_61 width_1"/><line x1="388" x2="467" y1="443.5" y2="443.5" class="net_61 width_1" style="stroke-width: 1"/><line x1="293" x2="388" y1="639" y2="639" class="net_61 width_1" style="stroke-width: 1"/><line x1="388" x2="388" y1="639" y2="617.5" class="net_61 width_1" style="stroke-width: 1"/><circle cx="388" cy="617.5" r="2" style="fill:#000" class="net_61 width_1"/><line x1="388" x2="467" y1="617.5" y2="617.5" class="net_61 width_1" style="stroke-width: 1"/><line x1="293" x2="388" y1="639" y2="639" class="net_61 width_1" style="stroke-width: 1"/><line x1="388" x2="388" y1="639" y2="87.5" class="net_61 width_1" style="stroke-width: 1"/><line x1="388" x2="467" y1="87.5" y2="87.5" class="net_61 width_1" style="stroke-width: 1"/><line x1="293" x2="388" y1="639" y2="639" class="net_61 width_1" style="stroke-width: 1"/><line x1="388" x2="388" y1="639" y2="862" class="net_61 width_1" style="stroke-width: 1"/><line x1="388" x2="754" y1="862" y2="862" class="net_61 width_1" style="stroke-width: 1"/><line x1="293" x2="398" y1="679" y2="679" class="net_62 width_1" style="stroke-width: 1"/><line x1="398" x2="398" y1="679" y2="275.5" class="net_62 width_1" style="stroke-width: 1"/><line x1="398" x2="467" y1="275.5" y2="275.5" class="net_62 width_1" style="stroke-width: 1"/><line x1="293" x2="398" y1="679" y2="679" class="net_62 width_1" style="stroke-width: 1"/><line x1="398" x2="398" y1="679" y2="463.5" class="net_62 width_1" style="stroke-width: 1"/><circle cx="398" cy="463.5" r="2" style="fill:#000" class="net_62 width_1"/><line x1="398" x2="467" y1="463.5" y2="463.5" class="net_62 width_1" style="stroke-width: 1"/><line x1="293" x2="398" y1="679" y2="679" class="net_62 width_1" style="stroke-width: 1"/><line x1="398" x2="398" y1="679" y2="637.5" class="net_62 width_1" style="stroke-width: 1"/><circle cx="398" cy="637.5" r="2" style="fill:#000" class="net_62 width_1"/><line x1="398" x2="467" y1="637.5" y2="637.5" class="net_62 width_1" style="stroke-width: 1"/><line x1="293" x2="408" y1="699" y2="699" class="net_63 width_1" style="stroke-width: 1"/><line x1="408" x2="408" y1="699" y2="315.5" class="net_63 width_1" style="stroke-width: 1"/><circle cx="408" cy="315.5" r="2" style="fill:#000" class="net_63 width_1"/><line x1="408" x2="467" y1="315.5" y2="315.5" class="net_63 width_1" style="stroke-width: 1"/><line x1="293" x2="408" y1="699" y2="699" class="net_63 width_1" style="stroke-width: 1"/><line x1="408" x2="408" y1="699" y2="503.5" class="net_63 width_1" style="stroke-width: 1"/><circle cx="408" cy="503.5" r="2" style="fill:#000" class="net_63 width_1"/><line x1="408" x2="467" y1="503.5" y2="503.5" class="net_63 width_1" style="stroke-width: 1"/><line x1="293" x2="408" y1="699" y2="699" class="net_63 width_1" style="stroke-width: 1"/><line x1="408" x2="408" y1="699" y2="677.5" class="net_63 width_1" style="stroke-width: 1"/><circle cx="408" cy="677.5" r="2" style="fill:#000" class="net_63 width_1"/><line x1="408" x2="467" y1="677.5" y2="677.5" class="net_63 width_1" style="stroke-width: 1"/><line x1="293" x2="408" y1="699" y2="699" class="net_63 width_1" style="stroke-width: 1"/><line x1="408" x2="408" y1="699" y2="127.5" class="net_63 width_1" style="stroke-width: 1"/><line x1="408" x2="467" y1="127.5" y2="127.5" class="net_63 width_1" style="stroke-width: 1"/><line x1="152" x2="197" y1="495" y2="495" class="net_9,10,11,12 width_4" style="stroke-width: 2"/><line x1="197" x2="197" y1="495" y2="403.5" class="net_9,10,11,12 width_4" style="stroke-width: 2"/><line x1="197" x2="467" y1="403.5" y2="403.5" class="net_9,10,11,12 width_4" style="stroke-width: 2"/><line x1="27" x2="98" y1="560.5" y2="560.5" class="net_29,30,31,32 width_4" style="stroke-width: 2"/><line x1="98" x2="98" y1="560.5" y2="423.5" class="net_29,30,31,32 width_4" style="stroke-width: 2"/><line x1="98" x2="467" y1="423.5" y2="423.5" class="net_29,30,31,32 width_4" style="stroke-width: 2"/><line x1="152" x2="227" y1="515" y2="515" class="net_5,6,7,8 width_4" style="stroke-width: 2"/><line x1="227" x2="227" y1="515" y2="577.5" class="net_5,6,7,8 width_4" style="stroke-width: 2"/><line x1="227" x2="467" y1="577.5" y2="577.5" class="net_5,6,7,8 width_4" style="stroke-width: 2"/><line x1="27" x2="98" y1="580.5" y2="580.5" class="net_25,26,27,28 width_4" style="stroke-width: 2"/><line x1="98" x2="98" y1="580.5" y2="818" class="net_25,26,27,28 width_4" style="stroke-width: 2"/><line x1="98" x2="418" y1="818" y2="818" class="net_25,26,27,28 width_4" style="stroke-width: 2"/><line x1="418" x2="418" y1="818" y2="597.5" class="net_25,26,27,28 width_4" style="stroke-width: 2"/><line x1="418" x2="467" y1="597.5" y2="597.5" class="net_25,26,27,28 width_4" style="stroke-width: 2"/><line x1="52" x2="68" y1="485" y2="485" class="net_5,6,7,8,9,10,11,12,13,14,15,16 width_12" style="stroke-width: 2"/><line x1="68" x2="68" y1="485" y2="47.5" class="net_5,6,7,8,9,10,11,12,13,14,15,16 width_12" style="stroke-width: 2"/><circle cx="68" cy="485" r="3" style="fill:#000" class="net_5,6,7,8,9,10,11,12,13,14,15,16 width_12"/><line x1="68" x2="467" y1="47.5" y2="47.5" class="net_5,6,7,8,9,10,11,12,13,14,15,16 width_12" style="stroke-width: 2"/><line x1="52" x2="147" y1="485" y2="485" class="net_5,6,7,8,9,10,11,12,13,14,15,16 width_12" style="stroke-width: 2"/><line x1="172" x2="368" y1="111" y2="111" class="net_17,18,19,20,21,22,23,24,65,66,67,68 width_12" style="stroke-width: 2"/><line x1="368" x2="368" y1="111" y2="67.5" class="net_17,18,19,20,21,22,23,24,65,66,67,68 width_12" style="stroke-width: 2"/><line x1="368" x2="467" y1="67.5" y2="67.5" class="net_17,18,19,20,21,22,23,24,65,66,67,68 width_12" style="stroke-width: 2"/><line x1="785" x2="802" y1="862" y2="862" class="net_64 width_1" style="stroke-width: 1"/><line x1="802" x2="802" y1="862" y2="989.5" class="net_64 width_1" style="stroke-width: 1"/><line x1="802" x2="197" y1="989.5" y2="989.5" class="net_64 width_1" style="stroke-width: 1"/><line x1="197" x2="197" y1="989.5" y2="659" class="net_64 width_1" style="stroke-width: 1"/><line x1="197" x2="262" y1="659" y2="659" class="net_64 width_1" style="stroke-width: 1"/><line x1="177" x2="187" y1="704" y2="704" class="net_3 width_1" style="stroke-width: 1"/><line x1="187" x2="187" y1="704" y2="679" class="net_3 width_1" style="stroke-width: 1"/><line x1="187" x2="262" y1="679" y2="679" class="net_3 width_1" style="stroke-width: 1"/><line x1="177" x2="207" y1="769" y2="769" class="net_4 width_1" style="stroke-width: 1"/><line x1="207" x2="207" y1="769" y2="699" class="net_4 width_1" style="stroke-width: 1"/><line x1="207" x2="262" y1="699" y2="699" class="net_4 width_1" style="stroke-width: 1"/><line x1="654" x2="754" y1="47.5" y2="47.5" class="net_17,18,19,20,21,22,23,24,25,26,27,28,29,30,31,32,33,34,35,36 width_20" style="stroke-width: 2"/><line x1="654" x2="671" y1="47.5" y2="47.5" class="net_17,18,19,20,21,22,23,24,25,26,27,28,29,30,31,32,33,34,35,36 width_20" style="stroke-width: 2"/><line x1="671" x2="671" y1="47.5" y2="16" class="net_17,18,19,20,21,22,23,24,25,26,27,28,29,30,31,32,33,34,35,36 width_20" style="stroke-width: 2"/><line x1="671" x2="12" y1="16" y2="16" class="net_17,18,19,20,21,22,23,24,25,26,27,28,29,30,31,32,33,34,35,36 width_20" style="stroke-width: 2"/><line x1="12" x2="12" y1="16" y2="550.5" class="net_17,18,19,20,21,22,23,24,25,26,27,28,29,30,31,32,33,34,35,36 width_20" style="stroke-width: 2"/><circle cx="671" cy="47.5" r="3" style="fill:#000" class="net_17,18,19,20,21,22,23,24,25,26,27,28,29,30,31,32,33,34,35,36 width_20"/><line x1="12" x2="22" y1="550.5" y2="550.5" class="net_17,18,19,20,21,22,23,24,25,26,27,28,29,30,31,32,33,34,35,36 width_20" style="stroke-width: 2"/><line x1="293" x2="368" y1="719" y2="719" class="net_37 width_1" style="stroke-width: 1"/><line x1="368" x2="368" y1="719" y2="969.5" class="net_37 width_1" style="stroke-width: 1"/><line x1="368" x2="754" y1="969.5" y2="969.5" class="net_37 width_1" style="stroke-width: 1"/><line x1="27" x2="88" y1="600.5" y2="600.5" class="net_17,18,19,20,21,22,23,24 width_8" style="stroke-width: 2"/><line x1="88" x2="88" y1="600.5" y2="101" class="net_17,18,19,20,21,22,23,24 width_8" style="stroke-width: 2"/><line x1="88" x2="166" y1="101" y2="101" class="net_17,18,19,20,21,22,23,24 width_8" style="stroke-width: 2"/><line x1="53" x2="166" y1="121" y2="121" class="net_65,66,67,68 width_4" style="stroke-width: 2"/><rect x="541" y="42.5" width="16" height="9" class="net_38,39,40,41,42,43,44,45 width_8 busLabel_8" style="fill: white; stroke: none"/><text x="540" y="50.5" class="net_38,39,40,41,42,43,44,45 width_8 busLabel_8">/8/</text><rect x="541" y="210.5" width="16" height="9" class="net_46,47,48,49 width_4 busLabel_4" style="fill: white; stroke: none"/><text x="540" y="218.5" class="net_46,47,48,49 width_4 busLabel_4">/4/</text><rect x="541" y="398.5" width="16" height="9" class="net_46,47,48,49 width_4 busLabel_4" style="fill: white; stroke: none"/><text x="540" y="406.5" class="net_46,47,48,49 width_4 busLabel_4">/4/</text><rect x="541" y="418.5" width="16" height="9" class="net_46,47,48,49 width_4 busLabel_4" style="fill: white; stroke: none"/><text x="540" y="426.5" class="net_46,47,48,49 width_4 busLabel_4">/4/</text><rect x="296.5" y="210.5" width="16" height="9" class="net_13,14,15,16 width_4 busLabel_4" style="fill: white; stroke: none"/><text x="295.5" y="218.5" class="net_13,14,15,16 width_4 busLabel_4">/4/</text><rect x="161" y="230.5" width="16" height="9" class="net_33,34,35,36 width_4 busLabel_4" style="fill: white; stroke: none"/><text x="160" y="238.5" class="net_33,34,35,36 width_4 busLabel_4">/4/</text><rect x="296.5" y="398.5" width="16" height="9" class="net_9,10,11,12 width_4 busLabel_4" style="fill: white; stroke: none"/><text x="295.5" y="406.5" class="net_9,10,11,12 width_4 busLabel_4">/4/</text><rect x="161" y="418.5" width="16" height="9" class="net_29,30,31,32 width_4 busLabel_4" style="fill: white; stroke: none"/><text x="160" y="426.5" class="net_29,30,31,32 width_4 busLabel_4">/4/</text><rect x="296.5" y="572.5" width="16" height="9" class="net_5,6,7,8 width_4 busLabel_4" style="fill: white; stroke: none"/><text x="295.5" y="580.5" class="net_5,6,7,8 width_4 busLabel_4">/4/</text><rect x="161" y="813" width="16" height="9" class="net_25,26,27,28 width_4 busLabel_4" style="fill: white; stroke: none"/><text x="160" y="821" class="net_25,26,27,28 width_4 busLabel_4">/4/</text><rect x="109" y="480" width="22" height="9" class="net_5,6,7,8,9,10,11,12,13,14,15,16 width_12 busLabel_12" style="fill: white; stroke: none"/><text x="108" y="488" class="net_5,6,7,8,9,10,11,12,13,14,15,16 width_12 busLabel_12">/12/</text><rect x="109" y="480" width="22" height="9" class="net_5,6,7,8,9,10,11,12,13,14,15,16 width_12 busLabel_12" style="fill: white; stroke: none"/><text x="108" y="488" class="net_5,6,7,8,9,10,11,12,13,14,15,16 width_12 busLabel_12">/12/</text><rect x="296.5" y="106" width="22" height="9" class="net_17,18,19,20,21,22,23,24,65,66,67,68 width_12 busLabel_12" style="fill: white; stroke: none"/><text x="295.5" y="114" class="net_17,18,19,20,21,22,23,24,65,66,67,68 width_12 busLabel_12">/12/</text><rect x="296.5" y="11" width="22" height="9" class="net_17,18,19,20,21,22,23,24,25,26,27,28,29,30,31,32,33,34,35,36 width_20 busLabel_20" style="fill: white; stroke: none"/><text x="295.5" y="19" class="net_17,18,19,20,21,22,23,24,25,26,27,28,29,30,31,32,33,34,35,36 width_20 busLabel_20">/20/</text><rect x="296.5" y="11" width="22" height="9" class="net_17,18,19,20,21,22,23,24,25,26,27,28,29,30,31,32,33,34,35,36 width_20 busLabel_20" style="fill: white; stroke: none"/><text x="295.5" y="19" class="net_17,18,19,20,21,22,23,24,25,26,27,28,29,30,31,32,33,34,35,36 width_20 busLabel_20">/20/</text><rect x="109" y="96" width="16" height="9" class="net_17,18,19,20,21,22,23,24 width_8 busLabel_8" style="fill: white; stroke: none"/><text x="108" y="104" class="net_17,18,19,20,21,22,23,24 width_8 busLabel_8">/8/</text><rect x="109" y="116" width="16" height="9" class="net_65,66,67,68 width_4 busLabel_4" style="fill: white; stroke: none"/><text x="108" y="124" class="net_65,66,67,68 width_4 busLabel_4">/4/</text></svg>